<?xml version="1.0" encoding="UTF-8"?>
<svg xmlns="http://www.w3.org/2000/svg" xmlns:inkscape="http://www.inkscape.org/namespaces/inkscape" width="80mm" height="94.416mm" viewBox="59 32 394 465"><g id="score-layer" inkscape:label="score-layer" inkscape:groupmode="layer" fill="#000000" stroke="none"><path d="M258 45H264V46H258Z M251 46H271V47H251Z M247 47H275V48H247Z M244 48H256V49H244Z M266 48H278V49H266Z M242 49H250V50H242Z M271 49H280V50H271Z M240 50H247V51H240Z M275 50H283V51H275Z M237 51H244V52H237Z M278 51H285V52H278Z M236 52H242V53H236Z M280 52H286V53H280Z M234 53H240V54H234Z M282 53H287V54H282Z M233 54H238V55H233Z M259 54H261V55H259Z M284 54H287V55H284Z M288 54H289V55H288Z M231 55H236V56H231Z M251 55H269V56H251Z M286 55H287V56H286Z M288 55H291V56H288Z M230 56H235V57H230Z M248 56H273V57H248Z M288 56H292V57H288Z M229 57H233V58H229Z M245 57H254V58H245Z M268 57H275V58H268Z M289 57H293V58H289Z M228 58H232V59H228Z M243 58H250V59H243Z M272 58H278V59H272Z M290 58H294V59H290Z M227 59H231V60H227Z M241 59H247V60H241Z M275 59H279V60H275Z M292 59H295V60H292Z M226 60H230V61H226Z M239 60H244V61H239Z M277 60H281V61H277Z M293 60H296V61H293Z M225 61H228V62H225Z M238 61H242V62H238Z M279 61H282V62H279Z M294 61H297V62H294Z M224 62H228V63H224Z M236 62H241V63H236Z M281 62H283V63H281Z M295 62H298V63H295Z M223 63H226V64H223Z M235 63H239V64H235Z M257 63H265V64H257Z M295 63H299V64H295Z M222 64H226V65H222Z M234 64H237V65H234Z M255 64H258V65H255Z M263 64H266V65H263Z M299 64H300V65H299Z M221 65H225V66H221Z M233 65H236V66H233Z M254 65H256V66H254Z M265 65H267V66H265Z M296 65H301V66H296Z M221 66H224V67H221Z M232 66H235V67H232Z M253 66H255V67H253Z M266 66H268V67H266Z M297 66H301V67H297Z M220 67H223V68H220Z M231 67H234V68H231Z M252 67H254V68H252Z M267 67H269V68H267Z M298 67H302V68H298Z M219 68H222V69H219Z M230 68H233V69H230Z M252 68H254V69H252Z M268 68H270V69H268Z M290 68H291V69H290Z M299 68H303V69H299Z M219 69H222V70H219Z M229 69H232V70H229Z M252 69H253V70H252Z M268 69H270V70H268Z M290 69H292V70H290Z M300 69H303V70H300Z M218 70H221V71H218Z M228 70H231V71H228Z M251 70H253V71H251Z M269 70H270V71H269Z M291 70H293V71H291Z M301 70H304V71H301Z M217 71H220V72H217Z M227 71H230V72H227Z M251 71H253V72H251Z M269 71H270V72H269Z M292 71H294V72H292Z M301 71H305V72H301Z M207 72H209V73H207Z M217 72H220V73H217Z M226 72H229V73H226Z M251 72H253V73H251Z M257 72H260V73H257Z M262 72H264V73H262Z M269 72H270V73H269Z M292 72H294V73H292Z M302 72H305V73H302Z M204 73H209V74H204Z M216 73H219V74H216Z M226 73H229V74H226Z M251 73H253V74H251Z M257 73H260V74H257Z M261 73H265V74H261Z M269 73H270V74H269Z M293 73H295V74H293Z M301 73H306V74H301Z M313 73H316V74H313Z M201 74H208V75H201Z M216 74H219V75H216Z M225 74H228V75H225Z M251 74H253V75H251Z M257 74H258V75H257Z M259 74H262V75H259Z M263 74H265V75H263Z M269 74H270V75H269Z M294 74H296V75H294Z M302 74H306V75H302Z M314 74H319V75H314Z M198 75H208V76H198Z M215 75H218V76H215Z M224 75H227V76H224Z M252 75H253V76H252Z M257 75H259V76H257Z M263 75H264V76H263Z M268 75H270V76H268Z M294 75H296V76H294Z M302 75H307V76H302Z M314 75H322V76H314Z M196 76H207V77H196Z M215 76H218V77H215Z M224 76H227V77H224Z M252 76H254V77H252Z M258 76H259V77H258Z M262 76H264V77H262Z M268 76H270V77H268Z M295 76H297V77H295Z M303 76H307V77H303Z M314 76H324V77H314Z M193 77H207V78H193Z M214 77H217V78H214Z M223 77H226V78H223Z M253 77H254V78H253Z M258 77H260V78H258Z M262 77H263V78H262Z M267 77H269V78H267Z M296 77H297V78H296Z M303 77H308V78H303Z M315 77H326V78H315Z M191 78H207V79H191Z M214 78H217V79H214Z M223 78H225V79H223Z M253 78H255V79H253Z M258 78H260V79H258Z M262 78H263V79H262Z M266 78H268V79H266Z M296 78H298V79H296Z M304 78H308V79H304Z M315 78H328V79H315Z M189 79H206V80H189Z M214 79H216V80H214Z M222 79H225V80H222Z M254 79H256V80H254Z M259 79H260V80H259Z M262 79H263V80H262Z M265 79H267V80H265Z M297 79H298V80H297Z M304 79H308V80H304Z M315 79H331V80H315Z M186 80H206V81H186Z M213 80H216V81H213Z M222 80H224V81H222Z M255 80H257V81H255Z M259 80H260V81H259Z M262 80H263V81H262Z M265 80H266V81H265Z M297 80H299V81H297Z M304 80H309V81H304Z M316 80H333V81H316Z M184 81H206V82H184Z M213 81H216V82H213Z M221 81H224V82H221Z M255 81H257V82H255Z M259 81H260V82H259Z M261 81H263V82H261Z M264 81H266V82H264Z M298 81H299V82H298Z M305 81H309V82H305Z M316 81H335V82H316Z M182 82H205V83H182Z M212 82H215V83H212Z M221 82H223V83H221Z M256 82H257V83H256Z M259 82H260V83H259Z M261 82H263V83H261Z M264 82H266V83H264Z M298 82H299V83H298Z M305 82H309V83H305Z M316 82H337V83H316Z M180 83H205V84H180Z M212 83H215V84H212Z M221 83H223V84H221Z M256 83H265V84H256Z M298 83H300V84H298Z M305 83H310V84H305Z M317 83H339V84H317Z M179 84H205V85H179Z M212 84H215V85H212Z M220 84H223V85H220Z M256 84H257V85H256Z M260 84H262V85H260Z M264 84H265V85H264Z M299 84H300V85H299Z M306 84H310V85H306Z M317 84H340V85H317Z M177 85H205V86H177Z M212 85H214V86H212Z M220 85H222V86H220Z M256 85H265V86H256Z M299 85H300V86H299Z M306 85H310V86H306Z M317 85H342V86H317Z M175 86H204V87H175Z M211 86H214V87H211Z M220 86H222V87H220Z M256 86H265V87H256Z M300 86H301V87H300Z M306 86H310V87H306Z M317 86H344V87H317Z M173 87H202V88H173Z M211 87H214V88H211Z M219 87H222V88H219Z M256 87H265V88H256Z M300 87H301V88H300Z M306 87H311V88H306Z M318 87H345V88H318Z M172 88H199V89H172Z M211 88H214V89H211Z M219 88H222V89H219Z M257 88H265V89H257Z M300 88H301V89H300Z M306 88H311V89H306Z M320 88H347V89H320Z M170 89H197V90H170Z M211 89H214V90H211Z M219 89H221V90H219Z M258 89H263V90H258Z M300 89H301V90H300Z M307 89H311V90H307Z M322 89H348V90H322Z M168 90H194V91H168Z M211 90H213V91H211Z M219 90H221V91H219Z M259 90H263V91H259Z M307 90H311V91H307Z M324 90H350V91H324Z M167 91H192V92H167Z M210 91H213V92H210Z M218 91H221V92H218Z M228 91H233V92H228Z M273 91H277V92H273Z M307 91H311V92H307Z M326 91H351V92H326Z M165 92H190V93H165Z M210 92H213V93H210Z M218 92H221V93H218Z M226 92H234V93H226Z M267 92H269V93H267Z M273 92H277V93H273Z M307 92H312V93H307Z M329 92H353V93H329Z M164 93H188V94H164Z M210 93H213V94H210Z M218 93H220V94H218Z M226 93H235V94H226Z M266 93H269V94H266Z M273 93H277V94H273Z M307 93H312V94H307Z M330 93H354V94H330Z M163 94H186V95H163Z M201 94H202V95H201Z M210 94H213V95H210Z M218 94H220V95H218Z M225 94H235V95H225Z M266 94H269V95H266Z M274 94H276V95H274Z M307 94H312V95H307Z M332 94H356V95H332Z M161 95H184V96H161Z M210 95H213V96H210Z M218 95H220V96H218Z M224 95H229V96H224Z M232 95H235V96H232Z M266 95H269V96H266Z M307 95H312V96H307Z M334 95H357V96H334Z M160 96H183V97H160Z M196 96H197V97H196Z M210 96H213V97H210Z M218 96H220V97H218Z M224 96H228V97H224Z M232 96H235V97H232Z M237 96H244V97H237Z M247 96H252V97H247Z M256 96H262V97H256Z M264 96H272V97H264Z M273 96H276V97H273Z M278 96H281V97H278Z M284 96H288V97H284Z M290 96H296V97H290Z M307 96H312V97H307Z M336 96H358V97H336Z M158 97H181V98H158Z M210 97H213V98H210Z M218 97H220V98H218Z M224 97H228V98H224Z M236 97H244V98H236Z M246 97H253V98H246Z M255 97H263V98H255Z M264 97H272V98H264Z M273 97H281V98H273Z M284 97H288V98H284Z M289 97H297V98H289Z M307 97H312V98H307Z M320 97H322V98H320Z M338 97H360V98H338Z M157 98H179V99H157Z M196 98H197V99H196Z M210 98H213V99H210Z M218 98H220V99H218Z M224 98H228V99H224Z M236 98H244V99H236Z M245 98H253V99H245Z M255 98H263V99H255Z M264 98H272V99H264Z M273 98H277V99H273Z M278 98H281V99H278Z M284 98H288V99H284Z M289 98H297V99H289Z M307 98H312V99H307Z M339 98H361V99H339Z M156 99H177V100H156Z M210 99H213V100H210Z M218 99H220V100H218Z M224 99H228V100H224Z M236 99H243V100H236Z M244 99H248V100H244Z M250 99H254V100H250Z M255 99H258V100H255Z M260 99H264V100H260Z M266 99H269V100H266Z M273 99H277V100H273Z M278 99H282V100H278Z M284 99H287V100H284Z M288 99H292V100H288Z M294 99H297V100H294Z M307 99H312V100H307Z M341 99H362V100H341Z M155 100H176V101H155Z M210 100H213V101H210Z M218 100H220V101H218Z M224 100H228V101H224Z M236 100H241V101H236Z M244 100H248V101H244Z M250 100H254V101H250Z M260 100H264V101H260Z M266 100H269V101H266Z M273 100H277V101H273Z M278 100H282V101H278Z M283 100H287V101H283Z M288 100H292V101H288Z M294 100H298V101H294Z M307 100H312V101H307Z M342 100H363V101H342Z M153 101H174V102H153Z M210 101H213V102H210Z M218 101H220V102H218Z M224 101H228V102H224Z M236 101H240V102H236Z M244 101H254V102H244Z M257 101H264V102H257Z M266 101H269V102H266Z M273 101H277V102H273Z M279 101H282V102H279Z M283 101H287V102H283Z M288 101H298V102H288Z M307 101H312V102H307Z M344 101H364V102H344Z M152 102H173V103H152Z M188 102H189V103H188Z M210 102H213V103H210Z M218 102H220V103H218Z M224 102H228V103H224Z M236 102H240V103H236Z M244 102H253V103H244Z M255 102H264V103H255Z M266 102H269V103H266Z M273 102H277V103H273Z M279 102H282V103H279Z M283 102H287V103H283Z M288 102H297V103H288Z M307 102H312V103H307Z M345 102H366V103H345Z M151 103H171V104H151Z M182 103H183V104H182Z M210 103H213V104H210Z M218 103H220V104H218Z M224 103H228V104H224Z M236 103H240V104H236Z M244 103H252V104H244Z M255 103H264V104H255Z M266 103H269V104H266Z M273 103H277V104H273Z M279 103H286V104H279Z M288 103H296V104H288Z M307 103H312V104H307Z M331 103H333V104H331Z M334 103H336V104H334Z M347 103H367V104H347Z M150 104H170V105H150Z M181 104H182V105H181Z M210 104H213V105H210Z M218 104H221V105H218Z M224 104H228V105H224Z M233 104H235V105H233Z M236 104H240V105H236Z M244 104H247V105H244Z M254 104H258V105H254Z M260 104H264V105H260Z M266 104H269V105H266Z M273 104H277V105H273Z M279 104H286V105H279Z M288 104H291V105H288Z M307 104H311V105H307Z M333 104H337V105H333Z M348 104H368V105H348Z M149 105H168V106H149Z M210 105H213V106H210Z M218 105H221V106H218Z M224 105H229V106H224Z M232 105H240V106H232Z M244 105H248V106H244Z M251 105H253V106H251Z M254 105H258V106H254Z M260 105H264V106H260Z M266 105H270V106H266Z M273 105H277V106H273Z M279 105H286V106H279Z M288 105H292V106H288Z M295 105H297V106H295Z M307 105H311V106H307Z M350 105H369V106H350Z M148 106H167V107H148Z M211 106H213V107H211Z M218 106H221V107H218Z M225 106H235V107H225Z M236 106H240V107H236Z M244 106H258V107H244Z M259 106H264V107H259Z M266 106H272V107H266Z M273 106H277V107H273Z M280 106H285V107H280Z M288 106H297V107H288Z M307 106H311V107H307Z M351 106H370V107H351Z M147 107H165V108H147Z M211 107H213V108H211Z M219 107H221V108H219Z M226 107H235V108H226Z M236 107H240V108H236Z M245 107H253V108H245Z M255 107H264V108H255Z M266 107H272V108H266Z M273 107H277V108H273Z M280 107H285V108H280Z M289 107H297V108H289Z M306 107H311V108H306Z M352 107H371V108H352Z M145 108H164V109H145Z M211 108H214V109H211Z M219 108H221V109H219Z M227 108H234V109H227Z M237 108H240V109H237Z M246 108H253V109H246Z M255 108H264V109H255Z M267 108H272V109H267Z M273 108H277V109H273Z M280 108H285V109H280Z M290 108H296V109H290Z M306 108H311V109H306Z M353 108H372V109H353Z M144 109H163V110H144Z M176 109H177V110H176Z M211 109H214V110H211Z M219 109H221V110H219Z M229 109H232V110H229Z M248 109H251V110H248Z M257 109H259V110H257Z M262 109H263V110H262Z M268 109H271V110H268Z M274 109H276V110H274Z M281 109H284V110H281Z M291 109H295V110H291Z M306 109H311V110H306Z M355 109H373V110H355Z M143 110H162V111H143Z M211 110H214V111H211Z M219 110H222V111H219Z M306 110H310V111H306Z M342 110H343V111H342Z M356 110H374V111H356Z M142 111H160V112H142Z M212 111H214V112H212Z M220 111H222V112H220Z M305 111H310V112H305Z M357 111H375V112H357Z M141 112H159V113H141Z M195 112H196V113H195Z M212 112H215V113H212Z M220 112H222V113H220Z M243 112H249V113H243Z M265 112H269V113H265Z M305 112H310V113H305Z M358 112H376V113H358Z M140 113H158V114H140Z M195 113H196V114H195Z M212 113H215V114H212Z M220 113H223V114H220Z M242 113H251V114H242Z M265 113H269V114H265Z M305 113H310V114H305Z M359 113H377V114H359Z M139 114H157V115H139Z M212 114H215V115H212Z M221 114H223V115H221Z M241 114H251V115H241Z M265 114H269V115H265Z M304 114H309V115H304Z M324 114H325V115H324Z M360 114H378V115H360Z M138 115H156V116H138Z M194 115H196V116H194Z M213 115H216V116H213Z M221 115H223V116H221Z M240 115H252V116H240Z M265 115H269V116H265Z M304 115H309V116H304Z M324 115H325V116H324Z M361 115H379V116H361Z M137 116H154V117H137Z M194 116H197V117H194Z M213 116H216V117H213Z M221 116H224V117H221Z M240 116H244V117H240Z M248 116H252V117H248Z M304 116H309V117H304Z M326 116H327V117H326Z M363 116H380V117H363Z M136 117H153V118H136Z M194 117H197V118H194Z M213 117H216V118H213Z M222 117H224V118H222Z M240 117H244V118H240Z M248 117H252V118H248Z M255 117H261V118H255Z M266 117H268V118H266Z M271 117H274V118H271Z M275 117H280V118H275Z M304 117H308V118H304Z M324 117H327V118H324Z M351 117H352V118H351Z M364 117H381V118H364Z M136 118H152V119H136Z M161 118H162V119H161Z M193 118H196V119H193Z M197 118H198V119H197Z M214 118H217V119H214Z M222 118H225V119H222Z M239 118H244V119H239Z M249 118H250V119H249Z M254 118H262V119H254Z M265 118H269V119H265Z M271 118H281V119H271Z M303 118H308V119H303Z M323 118H327V119H323Z M365 118H382V119H365Z M135 119H151V120H135Z M192 119H196V120H192Z M214 119H217V120H214Z M223 119H225V120H223Z M239 119H243V120H239Z M253 119H263V120H253Z M265 119H269V120H265Z M271 119H281V120H271Z M303 119H308V120H303Z M322 119H328V120H322Z M366 119H383V120H366Z M134 120H150V121H134Z M159 120H160V121H159Z M191 120H196V121H191Z M199 120H200V121H199Z M215 120H218V121H215Z M223 120H226V121H223Z M239 120H243V121H239Z M253 120H263V121H253Z M265 120H269V121H265Z M271 120H281V121H271Z M302 120H307V121H302Z M320 120H328V121H320Z M329 120H330V121H329Z M367 120H383V121H367Z M133 121H149V122H133Z M188 121H189V122H188Z M193 121H198V122H193Z M201 121H203V122H201Z M215 121H218V122H215Z M224 121H226V122H224Z M239 121H243V122H239Z M253 121H257V122H253Z M259 121H264V122H259Z M265 121H269V122H265Z M271 121H275V122H271Z M277 121H282V122H277Z M302 121H307V122H302Z M318 121H320V122H318Z M322 121H329V122H322Z M330 121H333V122H330Z M368 121H384V122H368Z M132 122H148V123H132Z M187 122H189V123H187Z M194 122H199V123H194Z M202 122H203V123H202Z M215 122H219V123H215Z M225 122H227V123H225Z M239 122H243V123H239Z M252 122H256V123H252Z M260 122H264V123H260Z M265 122H269V123H265Z M271 122H275V123H271Z M278 122H282V123H278Z M301 122H306V123H301Z M317 122H319V123H317Z M322 122H328V123H322Z M330 122H333V123H330Z M369 122H385V123H369Z M131 123H147V124H131Z M194 123H200V124H194Z M216 123H219V124H216Z M225 123H228V124H225Z M239 123H243V124H239Z M252 123H256V124H252Z M260 123H264V124H260Z M265 123H269V124H265Z M271 123H275V124H271Z M278 123H282V124H278Z M301 123H306V124H301Z M323 123H327V124H323Z M369 123H386V124H369Z M130 124H146V125H130Z M155 124H156V125H155Z M157 124H158V125H157Z M194 124H198V125H194Z M216 124H220V125H216Z M226 124H228V125H226Z M239 124H243V125H239Z M252 124H256V125H252Z M260 124H264V125H260Z M265 124H269V125H265Z M271 124H275V125H271Z M277 124H282V125H277Z M300 124H305V125H300Z M324 124H328V125H324Z M370 124H387V125H370Z M130 125H145V126H130Z M155 125H157V126H155Z M193 125H198V126H193Z M217 125H220V126H217Z M227 125H229V126H227Z M239 125H244V126H239Z M249 125H251V126H249Z M252 125H256V126H252Z M260 125H269V126H260Z M271 125H275V126H271Z M277 125H282V126H277Z M300 125H305V126H300Z M324 125H328V126H324Z M371 125H387V126H371Z M129 126H144V127H129Z M154 126H156V127H154Z M194 126H197V127H194Z M218 126H221V127H218Z M227 126H230V127H227Z M240 126H244V127H240Z M248 126H257V127H248Z M259 126H264V127H259Z M265 126H269V127H265Z M271 126H275V127H271Z M277 126H282V127H277Z M299 126H304V127H299Z M324 126H327V127H324Z M372 126H388V127H372Z M128 127H144V128H128Z M154 127H155V128H154Z M194 127H197V128H194Z M218 127H222V128H218Z M228 127H231V128H228Z M240 127H252V128H240Z M253 127H257V128H253Z M259 127H263V128H259Z M265 127H269V128H265Z M271 127H275V128H271Z M277 127H281V128H277Z M298 127H303V128H298Z M324 127H327V128H324Z M373 127H389V128H373Z M127 128H143V129H127Z M153 128H154V129H153Z M194 128H195V129H194Z M219 128H222V129H219Z M229 128H232V129H229Z M240 128H251V129H240Z M253 128H263V129H253Z M265 128H269V129H265Z M271 128H275V129H271Z M277 128H281V129H277Z M298 128H303V129H298Z M324 128H326V129H324Z M374 128H390V129H374Z M126 129H142V130H126Z M152 129H153V130H152Z M220 129H223V130H220Z M230 129H233V130H230Z M241 129H251V130H241Z M254 129H262V130H254Z M265 129H269V130H265Z M271 129H275V130H271Z M277 129H282V130H277Z M297 129H302V130H297Z M324 129H326V130H324Z M375 129H390V130H375Z M126 130H141V131H126Z M151 130H152V131H151Z M220 130H224V131H220Z M231 130H234V131H231Z M242 130H250V131H242Z M255 130H261V131H255Z M265 130H269V131H265Z M271 130H274V131H271Z M278 130H281V131H278Z M296 130H301V131H296Z M376 130H391V131H376Z M125 131H140V132H125Z M150 131H151V132H150Z M195 131H196V132H195Z M221 131H225V132H221Z M232 131H235V132H232Z M245 131H247V132H245Z M258 131H259V132H258Z M295 131H301V132H295Z M376 131H392V132H376Z M124 132H139V133H124Z M147 132H150V133H147Z M222 132H226V133H222Z M233 132H236V133H233Z M294 132H300V133H294Z M377 132H393V133H377Z M123 133H138V134H123Z M147 133H149V134H147Z M223 133H226V134H223Z M234 133H238V134H234Z M293 133H299V134H293Z M378 133H393V134H378Z M123 134H138V135H123Z M223 134H227V135H223Z M236 134H239V135H236Z M292 134H298V135H292Z M368 134H369V135H368Z M379 134H394V135H379Z M122 135H137V136H122Z M224 135H228V136H224Z M237 135H241V136H237Z M291 135H297V136H291Z M380 135H394V136H380Z M121 136H136V137H121Z M225 136H229V137H225Z M238 136H242V137H238Z M290 136H296V137H290Z M370 136H371V137H370Z M372 136H373V137H372Z M380 136H395V137H380Z M121 137H135V138H121Z M226 137H231V138H226Z M240 137H244V138H240Z M289 137H295V138H289Z M372 137H374V138H372Z M381 137H396V138H381Z M120 138H135V139H120Z M144 138H145V139H144Z M155 138H169V139H155Z M227 138H232V139H227Z M242 138H247V139H242Z M288 138H294V139H288Z M382 138H396V139H382Z M119 139H134V140H119Z M153 139H173V140H153Z M228 139H233V140H228Z M244 139H250V140H244Z M287 139H293V140H287Z M382 139H397V140H382Z M119 140H133V141H119Z M152 140H176V141H152Z M230 140H235V141H230Z M247 140H253V141H247Z M285 140H292V141H285Z M373 140H374V141H373Z M375 140H376V141H375Z M383 140H398V141H383Z M118 141H132V142H118Z M152 141H155V142H152Z M168 141H178V142H168Z M228 141H236V142H228Z M251 141H259V142H251Z M284 141H294V142H284Z M375 141H376V142H375Z M384 141H398V142H384Z M117 142H132V143H117Z M151 142H154V143H151Z M172 142H180V143H172Z M222 142H238V143H222Z M282 142H298V143H282Z M385 142H399V143H385Z M117 143H131V144H117Z M151 143H154V144H151Z M175 143H182V144H175Z M217 143H240V144H217Z M280 143H302V144H280Z M375 143H376V144H375Z M385 143H399V144H385Z M116 144H130V145H116Z M137 144H138V145H137Z M151 144H154V145H151Z M177 144H184V145H177Z M213 144H231V145H213Z M235 144H242V145H235Z M277 144H286V145H277Z M292 144H305V145H292Z M376 144H377V145H376Z M378 144H379V145H378Z M386 144H400V145H386Z M116 145H130V146H116Z M151 145H154V146H151Z M179 145H186V146H179Z M209 145H223V146H209Z M237 145H245V146H237Z M275 145H285V146H275Z M296 145H308V146H296Z M387 145H401V146H387Z M115 146H129V147H115Z M138 146H139V147H138Z M150 146H154V147H150Z M181 146H187V147H181Z M206 146H218V147H206Z M237 146H248V147H237Z M272 146H288V147H272Z M300 146H310V147H300Z M387 146H401V147H387Z M114 147H128V148H114Z M135 147H136V148H135Z M150 147H153V148H150Z M158 147H162V148H158Z M183 147H189V148H183Z M203 147H214V148H203Z M233 147H253V148H233Z M267 147H291V148H267Z M303 147H313V148H303Z M378 147H379V148H378Z M380 147H381V148H380Z M388 147H402V148H388Z M114 148H128V149H114Z M150 148H153V149H150Z M158 148H165V149H158Z M184 148H190V149H184Z M201 148H210V149H201Z M229 148H293V149H229Z M306 148H315V149H306Z M388 148H402V149H388Z M113 149H127V150H113Z M136 149H137V150H136Z M150 149H153V150H150Z M158 149H167V150H158Z M186 149H191V150H186Z M198 149H207V150H198Z M226 149H294V150H226Z M309 149H317V150H309Z M389 149H403V150H389Z M113 150H126V151H113Z M134 150H136V151H134Z M150 150H153V151H150Z M157 150H169V151H157Z M187 150H192V151H187Z M196 150H204V151H196Z M224 150H296V151H224Z M311 150H319V151H311Z M390 150H403V151H390Z M112 151H126V152H112Z M134 151H135V152H134Z M150 151H153V152H150Z M157 151H171V152H157Z M188 151H193V152H188Z M194 151H201V152H194Z M221 151H297V152H221Z M313 151H321V152H313Z M390 151H404V152H390Z M112 152H125V153H112Z M132 152H133V153H132Z M134 152H135V153H134Z M150 152H153V153H150Z M157 152H172V153H157Z M189 152H199V153H189Z M220 152H298V153H220Z M315 152H322V153H315Z M391 152H404V153H391Z M111 153H125V154H111Z M150 153H153V154H150Z M157 153H174V154H157Z M190 153H197V154H190Z M219 153H267V154H219Z M286 153H299V154H286Z M317 153H324V154H317Z M391 153H405V154H391Z M111 154H124V155H111Z M150 154H153V155H150Z M157 154H175V155H157Z M191 154H195V155H191Z M220 154H260V155H220Z M293 154H299V155H293Z M319 154H326V155H319Z M392 154H405V155H392Z M110 155H123V156H110Z M130 155H131V156H130Z M132 155H133V156H132Z M149 155H153V156H149Z M157 155H176V156H157Z M192 155H193V156H192Z M225 155H256V156H225Z M321 155H327V156H321Z M392 155H406V156H392Z M110 156H123V157H110Z M149 156H152V157H149Z M157 156H177V157H157Z M229 156H252V157H229Z M323 156H329V157H323Z M393 156H406V157H393Z M109 157H122V158H109Z M129 157H130V158H129Z M131 157H132V158H131Z M149 157H152V158H149Z M157 157H178V158H157Z M231 157H249V158H231Z M324 157H330V158H324Z M393 157H407V158H393Z M109 158H122V159H109Z M149 158H152V159H149Z M157 158H179V159H157Z M234 158H246V159H234Z M326 158H331V159H326Z M394 158H407V159H394Z M108 159H121V160H108Z M128 159H129V160H128Z M149 159H152V160H149Z M157 159H179V160H157Z M236 159H243V160H236Z M327 159H333V160H327Z M385 159H386V160H385Z M387 159H388V160H387Z M394 159H408V160H394Z M108 160H121V161H108Z M129 160H130V161H129Z M149 160H152V161H149Z M157 160H180V161H157Z M238 160H241V161H238Z M328 160H334V161H328Z M395 160H408V161H395Z M107 161H120V162H107Z M149 161H152V162H149Z M157 161H180V162H157Z M330 161H335V162H330Z M388 161H389V162H388Z M395 161H409V162H395Z M107 162H120V163H107Z M128 162H129V163H128Z M149 162H152V163H149Z M157 162H181V163H157Z M272 162H284V163H272Z M331 162H336V163H331Z M396 162H409V163H396Z M106 163H119V164H106Z M149 163H152V164H149Z M157 163H180V164H157Z M268 163H288V164H268Z M332 163H337V164H332Z M387 163H388V164H387Z M389 163H390V164H389Z M396 163H410V164H396Z M106 164H119V165H106Z M125 164H126V165H125Z M127 164H128V165H127Z M149 164H153V165H149Z M157 164H179V165H157Z M265 164H291V165H265Z M333 164H338V165H333Z M397 164H410V165H397Z M105 165H118V166H105Z M149 165H153V166H149Z M157 165H177V166H157Z M263 165H269V166H263Z M284 165H292V166H284Z M334 165H339V166H334Z M397 165H410V166H397Z M105 166H118V167H105Z M126 166H127V167H126Z M149 166H153V167H149Z M157 166H176V167H157Z M261 166H265V167H261Z M288 166H293V167H288Z M335 166H340V167H335Z M398 166H411V167H398Z M105 167H117V168H105Z M124 167H125V168H124Z M150 167H153V168H150Z M157 167H175V168H157Z M259 167H262V168H259Z M290 167H294V168H290Z M336 167H341V168H336Z M398 167H411V168H398Z M104 168H117V169H104Z M125 168H126V169H125Z M150 168H153V169H150Z M157 168H174V169H157Z M258 168H260V169H258Z M291 168H294V169H291Z M337 168H342V169H337Z M399 168H411V169H399Z M104 169H117V170H104Z M123 169H124V170H123Z M150 169H153V170H150Z M158 169H173V170H158Z M256 169H258V170H256Z M291 169H294V170H291Z M338 169H343V170H338Z M390 169H391V170H390Z M392 169H393V170H392Z M399 169H412V170H399Z M103 170H116V171H103Z M124 170H125V171H124Z M150 170H153V171H150Z M158 170H172V171H158Z M291 170H295V171H291Z M339 170H344V171H339Z M399 170H412V171H399Z M103 171H116V172H103Z M122 171H123V172H122Z M150 171H154V172H150Z M158 171H171V172H158Z M291 171H295V172H291Z M340 171H345V172H340Z M391 171H392V172H391Z M400 171H413V172H400Z M103 172H115V173H103Z M150 172H154V173H150Z M159 172H170V173H159Z M278 172H281V173H278Z M291 172H295V173H291Z M341 172H345V173H341Z M400 172H413V173H400Z M102 173H115V174H102Z M121 173H122V174H121Z M151 173H154V174H151Z M159 173H169V174H159Z M273 173H285V174H273Z M292 173H295V174H292Z M342 173H346V174H342Z M401 173H413V174H401Z M102 174H114V175H102Z M151 174H154V175H151Z M159 174H169V175H159Z M270 174H285V175H270Z M291 174H296V175H291Z M343 174H347V175H343Z M392 174H393V175H392Z M401 174H414V175H401Z M102 175H114V176H102Z M120 175H121V176H120Z M122 175H123V176H122Z M151 175H155V176H151Z M160 175H168V176H160Z M267 175H285V176H267Z M291 175H296V176H291Z M343 175H348V176H343Z M401 175H414V176H401Z M101 176H114V177H101Z M120 176H121V177H120Z M151 176H155V177H151Z M160 176H167V177H160Z M266 176H286V177H266Z M291 176H296V177H291Z M344 176H348V177H344Z M402 176H414V177H402Z M101 177H113V178H101Z M121 177H122V178H121Z M152 177H155V178H152Z M161 177H166V178H161Z M264 177H286V178H264Z M291 177H296V178H291Z M345 177H349V178H345Z M402 177H415V178H402Z M101 178H113V179H101Z M152 178H156V179H152Z M162 178H165V179H162Z M263 178H286V179H263Z M291 178H296V179H291Z M346 178H350V179H346Z M402 178H415V179H402Z M100 179H113V180H100Z M152 179H156V180H152Z M161 179H165V180H161Z M262 179H286V180H262Z M291 179H296V180H291Z M346 179H350V180H346Z M403 179H415V180H403Z M100 180H112V181H100Z M153 180H157V181H153Z M160 180H164V181H160Z M261 180H286V181H261Z M291 180H296V181H291Z M347 180H351V181H347Z M403 180H416V181H403Z M100 181H112V182H100Z M118 181H119V182H118Z M153 181H157V182H153Z M160 181H163V182H160Z M260 181H286V182H260Z M291 181H296V182H291Z M347 181H351V182H347Z M404 181H416V182H404Z M99 182H112V183H99Z M154 182H158V183H154Z M159 182H163V183H159Z M180 182H183V183H180Z M259 182H286V183H259Z M291 182H296V183H291Z M348 182H352V183H348Z M395 182H396V183H395Z M397 182H398V183H397Z M404 182H416V183H404Z M99 183H111V184H99Z M154 183H158V184H154Z M159 183H162V184H159Z M177 183H185V184H177Z M259 183H286V184H259Z M291 183H296V184H291Z M349 183H353V184H349Z M404 183H416V184H404Z M99 184H111V185H99Z M117 184H118V185H117Z M155 184H162V185H155Z M176 184H185V185H176Z M260 184H286V185H260Z M291 184H296V185H291Z M349 184H353V185H349Z M404 184H417V185H404Z M98 185H111V186H98Z M117 185H118V186H117Z M156 185H161V186H156Z M175 185H185V186H175Z M261 185H285V186H261Z M291 185H296V186H291Z M350 185H354V186H350Z M405 185H417V186H405Z M98 186H110V187H98Z M156 186H160V187H156Z M174 186H180V187H174Z M262 186H285V187H262Z M291 186H296V187H291Z M350 186H354V187H350Z M398 186H399V187H398Z M405 186H417V187H405Z M98 187H110V188H98Z M116 187H117V188H116Z M156 187H160V188H156Z M173 187H177V188H173Z M263 187H285V188H263Z M291 187H296V188H291Z M351 187H355V188H351Z M405 187H418V188H405Z M98 188H110V189H98Z M156 188H159V189H156Z M173 188H175V189H173Z M264 188H285V189H264Z M290 188H296V189H290Z M349 188H350V189H349Z M351 188H355V189H351Z M397 188H398V189H397Z M406 188H418V189H406Z M97 189H109V190H97Z M117 189H118V190H117Z M155 189H159V190H155Z M173 189H174V190H173Z M265 189H285V190H265Z M290 189H296V190H290Z M352 189H356V190H352Z M399 189H400V190H399Z M406 189H418V190H406Z M97 190H109V191H97Z M115 190H116V191H115Z M155 190H158V191H155Z M265 190H284V191H265Z M290 190H296V191H290Z M352 190H356V191H352Z M406 190H418V191H406Z M97 191H109V192H97Z M154 191H158V192H154Z M226 191H232V192H226Z M266 191H284V192H266Z M290 191H296V192H290Z M353 191H356V192H353Z M406 191H419V192H406Z M97 192H109V193H97Z M154 192H157V193H154Z M226 192H234V193H226Z M267 192H284V193H267Z M289 192H296V193H289Z M353 192H357V193H353Z M407 192H419V193H407Z M96 193H108V194H96Z M153 193H157V194H153Z M226 193H235V194H226Z M267 193H283V194H267Z M289 193H296V194H289Z M354 193H357V194H354Z M407 193H419V194H407Z M96 194H108V195H96Z M153 194H156V195H153Z M228 194H236V195H228Z M268 194H283V195H268Z M289 194H295V195H289Z M351 194H353V195H351Z M354 194H358V195H354Z M407 194H419V195H407Z M96 195H108V196H96Z M114 195H115V196H114Z M153 195H156V196H153Z M231 195H236V196H231Z M269 195H283V196H269Z M288 195H296V196H288Z M351 195H353V196H351Z M354 195H358V196H354Z M407 195H419V196H407Z M96 196H108V197H96Z M152 196H156V197H152Z M233 196H237V197H233Z M269 196H282V197H269Z M288 196H296V197H288Z M352 196H353V197H352Z M355 196H358V197H355Z M408 196H420V197H408Z M95 197H107V198H95Z M115 197H116V198H115Z M152 197H155V198H152Z M234 197H237V198H234Z M270 197H282V198H270Z M288 197H296V198H288Z M352 197H354V198H352Z M355 197H359V198H355Z M408 197H420V198H408Z M95 198H107V199H95Z M113 198H114V199H113Z M151 198H155V199H151Z M174 198H178V199H174Z M235 198H238V199H235Z M270 198H281V199H270Z M287 198H296V199H287Z M352 198H354V199H352Z M355 198H359V199H355Z M408 198H420V199H408Z M95 199H107V200H95Z M151 199H155V200H151Z M172 199H180V200H172Z M236 199H238V200H236Z M271 199H281V200H271Z M287 199H296V200H287Z M356 199H360V200H356Z M371 199H377V200H371Z M408 199H420V200H408Z M95 200H107V201H95Z M114 200H115V201H114Z M128 200H129V201H128Z M151 200H154V201H151Z M171 200H174V201H171Z M177 200H181V201H177Z M236 200H238V201H236Z M271 200H280V201H271Z M287 200H295V201H287Z M356 200H360V201H356Z M369 200H379V201H369Z M400 200H401V201H400Z M408 200H420V201H408Z M95 201H106V202H95Z M114 201H115V202H114Z M128 201H130V202H128Z M150 201H154V202H150Z M170 201H172V202H170Z M179 201H181V202H179Z M272 201H279V202H272Z M286 201H295V202H286Z M353 201H355V202H353Z M356 201H360V202H356Z M368 201H380V202H368Z M409 201H420V202H409Z M94 202H106V203H94Z M128 202H130V203H128Z M150 202H154V203H150Z M169 202H171V203H169Z M180 202H182V203H180Z M272 202H279V203H272Z M286 202H295V203H286Z M353 202H355V203H353Z M357 202H360V203H357Z M367 202H371V203H367Z M377 202H381V203H377Z M402 202H403V203H402Z M409 202H421V203H409Z M94 203H106V204H94Z M127 203H130V204H127Z M150 203H153V204H150Z M168 203H170V204H168Z M180 203H182V204H180Z M273 203H278V204H273Z M285 203H292V204H285Z M293 203H294V204H293Z M353 203H356V204H353Z M357 203H361V204H357Z M366 203H370V204H366Z M378 203H382V204H378Z M409 203H421V204H409Z M94 204H106V205H94Z M127 204H131V205H127Z M150 204H153V205H150Z M168 204H169V205H168Z M176 204H178V205H176Z M181 204H183V205H181Z M273 204H277V205H273Z M285 204H294V205H285Z M353 204H356V205H353Z M357 204H361V205H357Z M366 204H369V205H366Z M379 204H383V205H379Z M409 204H421V205H409Z M94 205H106V206H94Z M126 205H132V206H126Z M149 205H153V206H149Z M167 205H168V206H167Z M174 205H180V206H174Z M181 205H183V206H181Z M273 205H275V206H273Z M284 205H294V206H284Z M353 205H356V206H353Z M357 205H361V206H357Z M365 205H368V206H365Z M380 205H383V206H380Z M409 205H421V206H409Z M94 206H106V207H94Z M124 206H133V207H124Z M149 206H152V207H149Z M172 206H183V207H172Z M283 206H290V207H283Z M291 206H293V207H291Z M353 206H357V207H353Z M358 206H362V207H358Z M365 206H368V207H365Z M380 206H384V207H380Z M409 206H421V207H409Z M94 207H105V208H94Z M121 207H136V208H121Z M149 207H152V208H149Z M172 207H177V208H172Z M179 207H183V208H179Z M283 207H293V208H283Z M353 207H357V208H353Z M358 207H362V208H358Z M364 207H368V208H364Z M372 207H374V208H372Z M381 207H384V208H381Z M410 207H421V208H410Z M94 208H105V209H94Z M111 208H112V209H111Z M122 208H136V209H122Z M148 208H152V209H148Z M171 208H177V209H171Z M180 208H183V209H180Z M222 208H230V209H222Z M282 208H292V209H282Z M353 208H362V209H353Z M364 208H367V209H364Z M371 208H373V209H371Z M381 208H384V209H381Z M410 208H422V209H410Z M93 209H105V210H93Z M111 209H112V210H111Z M125 209H133V210H125Z M148 209H152V210H148Z M170 209H176V210H170Z M180 209H183V210H180Z M221 209H231V210H221Z M281 209H292V210H281Z M354 209H362V210H354Z M364 209H367V210H364Z M371 209H373V210H371Z M380 209H384V210H380Z M410 209H422V210H410Z M93 210H105V211H93Z M126 210H131V211H126Z M148 210H151V211H148Z M170 210H176V211H170Z M180 210H183V211H180Z M220 210H222V211H220Z M228 210H232V211H228Z M280 210H287V211H280Z M288 210H291V211H288Z M354 210H358V211H354Z M359 210H362V211H359Z M364 210H367V211H364Z M371 210H372V211H371Z M380 210H384V211H380Z M391 210H394V211H391Z M410 210H422V211H410Z M93 211H105V212H93Z M127 211H131V212H127Z M148 211H151V212H148Z M170 211H176V212H170Z M180 211H183V212H180Z M219 211H221V212H219Z M230 211H233V212H230Z M280 211H290V212H280Z M354 211H358V212H354Z M359 211H363V212H359Z M364 211H367V212H364Z M370 211H372V212H370Z M380 211H384V212H380Z M392 211H395V212H392Z M410 211H422V212H410Z M93 212H105V213H93Z M127 212H130V213H127Z M148 212H151V213H148Z M170 212H182V213H170Z M218 212H219V213H218Z M231 212H234V213H231Z M279 212H285V213H279Z M286 212H289V213H286Z M353 212H363V213H353Z M364 212H368V213H364Z M370 212H373V213H370Z M380 212H384V213H380Z M392 212H395V213H392Z M402 212H403V213H402Z M410 212H422V213H410Z M93 213H105V214H93Z M112 213H113V214H112Z M128 213H130V214H128Z M147 213H151V214H147Z M169 213H182V214H169Z M218 213H219V214H218Z M232 213H234V214H232Z M277 213H284V214H277Z M285 213H288V214H285Z M353 213H363V214H353Z M364 213H368V214H364Z M371 213H373V214H371Z M380 213H384V214H380Z M392 213H395V214H392Z M402 213H403V214H402Z M410 213H422V214H410Z M93 214H104V215H93Z M128 214H130V215H128Z M147 214H151V215H147Z M169 214H182V215H169Z M217 214H218V215H217Z M226 214H230V215H226Z M232 214H235V215H232Z M277 214H282V215H277Z M284 214H287V215H284Z M353 214H363V215H353Z M365 214H368V215H365Z M372 214H373V215H372Z M380 214H384V215H380Z M392 214H395V215H392Z M402 214H405V215H402Z M411 214H422V215H411Z M93 215H104V216H93Z M110 215H111V216H110Z M128 215H129V216H128Z M146 215H150V216H146Z M169 215H181V216H169Z M224 215H231V216H224Z M233 215H235V216H233Z M278 215H279V216H278Z M281 215H282V216H281Z M353 215H363V216H353Z M365 215H369V216H365Z M372 215H374V216H372Z M380 215H384V216H380Z M392 215H395V216H392Z M404 215H405V216H404Z M411 215H422V216H411Z M93 216H104V217H93Z M110 216H111V217H110Z M146 216H150V217H146Z M169 216H181V217H169Z M223 216H235V217H223Z M353 216H363V217H353Z M365 216H370V217H365Z M373 216H374V217H373Z M379 216H384V217H379Z M392 216H395V217H392Z M404 216H405V217H404Z M411 216H422V217H411Z M93 217H104V218H93Z M110 217H111V218H110Z M145 217H149V218H145Z M170 217H181V218H170Z M222 217H229V218H222Z M231 217H235V218H231Z M353 217H363V218H353Z M366 217H371V218H366Z M373 217H375V218H373Z M379 217H383V218H379Z M391 217H395V218H391Z M404 217H405V218H404Z M411 217H422V218H411Z M92 218H104V219H92Z M144 218H148V219H144Z M170 218H180V219H170Z M221 218H228V219H221Z M232 218H235V219H232Z M353 218H363V219H353Z M366 218H374V219H366Z M378 218H383V219H378Z M386 218H387V219H386Z M390 218H394V219H390Z M404 218H405V219H404Z M411 218H422V219H411Z M92 219H104V220H92Z M144 219H148V220H144Z M170 219H180V220H170Z M221 219H227V220H221Z M232 219H235V220H232Z M353 219H363V220H353Z M367 219H373V220H367Z M377 219H386V220H377Z M389 219H394V220H389Z M403 219H405V220H403Z M411 219H422V220H411Z M92 220H104V221H92Z M143 220H147V221H143Z M171 220H188V221H171Z M220 220H227V221H220Z M232 220H235V221H232Z M353 220H372V221H353Z M376 220H384V221H376Z M389 220H393V221H389Z M403 220H404V221H403Z M411 220H423V221H411Z M92 221H104V222H92Z M111 221H112V222H111Z M143 221H147V222H143Z M171 221H192V222H171Z M220 221H228V222H220Z M232 221H235V222H232Z M353 221H371V222H353Z M375 221H381V222H375Z M387 221H393V222H387Z M403 221H404V222H403Z M411 221H423V222H411Z M92 222H104V223H92Z M111 222H112V223H111Z M142 222H146V223H142Z M169 222H178V223H169Z M184 222H194V223H184Z M220 222H228V223H220Z M231 222H235V223H231Z M353 222H368V223H353Z M374 222H380V223H374Z M384 222H392V223H384Z M403 222H404V223H403Z M411 222H423V223H411Z M92 223H104V224H92Z M111 223H112V224H111Z M142 223H146V224H142Z M151 223H156V224H151Z M167 223H173V224H167Z M189 223H196V224H189Z M220 223H235V224H220Z M353 223H365V224H353Z M373 223H391V224H373Z M403 223H404V224H403Z M411 223H423V224H411Z M92 224H104V225H92Z M142 224H145V225H142Z M149 224H152V225H149Z M156 224H159V225H156Z M166 224H171V225H166Z M192 224H198V225H192Z M220 224H234V225H220Z M352 224H366V225H352Z M370 224H379V225H370Z M380 224H390V225H380Z M403 224H404V225H403Z M411 224H423V225H411Z M92 225H104V226H92Z M141 225H145V226H141Z M148 225H151V226H148Z M157 225H160V226H157Z M164 225H169V226H164Z M181 225H184V226H181Z M194 225H199V226H194Z M220 225H234V226H220Z M352 225H389V226H352Z M411 225H423V226H411Z M92 226H104V227H92Z M141 226H145V227H141Z M148 226H153V227H148Z M155 226H161V227H155Z M163 226H167V227H163Z M196 226H201V227H196Z M220 226H234V227H220Z M352 226H388V227H352Z M403 226H404V227H403Z M411 226H423V227H411Z M92 227H104V228H92Z M141 227H144V228H141Z M148 227H161V228H148Z M162 227H166V228H162Z M197 227H202V228H197Z M220 227H233V228H220Z M352 227H359V228H352Z M360 227H366V228H360Z M367 227H385V228H367Z M411 227H423V228H411Z M92 228H104V229H92Z M140 228H144V229H140Z M148 228H165V229H148Z M199 228H203V229H199Z M220 228H233V229H220Z M351 228H358V229H351Z M360 228H374V229H360Z M411 228H423V229H411Z M92 229H104V230H92Z M140 229H144V230H140Z M148 229H164V230H148Z M200 229H204V230H200Z M220 229H232V230H220Z M351 229H359V230H351Z M360 229H372V230H360Z M411 229H423V230H411Z M92 230H104V231H92Z M140 230H144V231H140Z M148 230H163V231H148Z M201 230H205V231H201Z M221 230H232V231H221Z M351 230H370V231H351Z M411 230H423V231H411Z M92 231H103V232H92Z M140 231H144V232H140Z M149 231H162V232H149Z M202 231H206V232H202Z M221 231H231V232H221Z M350 231H363V232H350Z M411 231H423V232H411Z M92 232H103V233H92Z M140 232H143V233H140Z M150 232H162V233H150Z M202 232H206V233H202Z M222 232H230V233H222Z M350 232H363V233H350Z M411 232H423V233H411Z M92 233H104V234H92Z M140 233H143V234H140Z M152 233H161V234H152Z M203 233H207V234H203Z M224 233H228V234H224Z M350 233H363V234H350Z M411 233H423V234H411Z M92 234H104V235H92Z M139 234H143V235H139Z M157 234H161V235H157Z M204 234H208V235H204Z M349 234H363V235H349Z M411 234H423V235H411Z M92 235H104V236H92Z M139 235H143V236H139Z M157 235H160V236H157Z M171 235H174V236H171Z M204 235H208V236H204Z M349 235H363V236H349Z M403 235H404V236H403Z M411 235H423V236H411Z M92 236H104V237H92Z M139 236H143V237H139Z M157 236H160V237H157Z M170 236H175V237H170Z M205 236H209V237H205Z M349 236H363V237H349Z M403 236H404V237H403Z M411 236H423V237H411Z M92 237H104V238H92Z M139 237H143V238H139Z M157 237H160V238H157Z M161 237H162V238H161Z M169 237H175V238H169Z M205 237H209V238H205Z M348 237H363V238H348Z M403 237H404V238H403Z M411 237H423V238H411Z M92 238H104V239H92Z M139 238H143V239H139Z M156 238H159V239H156Z M169 238H176V239H169Z M191 238H192V239H191Z M206 238H209V239H206Z M348 238H363V239H348Z M403 238H404V239H403Z M411 238H423V239H411Z M92 239H104V240H92Z M139 239H143V240H139Z M156 239H159V240H156Z M169 239H176V240H169Z M189 239H194V240H189Z M205 239H210V240H205Z M231 239H239V240H231Z M347 239H363V240H347Z M403 239H404V240H403Z M411 239H423V240H411Z M92 240H104V241H92Z M139 240H143V241H139Z M156 240H159V241H156Z M168 240H176V241H168Z M189 240H195V241H189Z M206 240H210V241H206Z M230 240H233V241H230Z M238 240H241V241H238Z M347 240H363V241H347Z M403 240H404V241H403Z M411 240H423V241H411Z M92 241H104V242H92Z M139 241H143V242H139Z M156 241H159V242H156Z M168 241H176V242H168Z M188 241H195V242H188Z M207 241H210V242H207Z M229 241H233V242H229Z M240 241H242V242H240Z M346 241H362V242H346Z M403 241H404V242H403Z M411 241H422V242H411Z M92 242H104V243H92Z M140 242H143V243H140Z M156 242H159V243H156Z M168 242H176V243H168Z M188 242H195V243H188Z M207 242H211V243H207Z M228 242H233V243H228Z M240 242H243V243H240Z M346 242H362V243H346Z M411 242H422V243H411Z M92 243H104V244H92Z M140 243H143V244H140Z M156 243H159V244H156Z M168 243H176V244H168Z M188 243H196V244H188Z M207 243H211V244H207Z M228 243H244V244H228Z M345 243H362V244H345Z M404 243H405V244H404Z M411 243H422V244H411Z M92 244H104V245H92Z M140 244H144V245H140Z M156 244H159V245H156Z M168 244H176V245H168Z M187 244H196V245H187Z M206 244H211V245H206Z M227 244H244V245H227Z M345 244H362V245H345Z M404 244H405V245H404Z M411 244H422V245H411Z M92 245H104V246H92Z M140 245H144V246H140Z M156 245H159V246H156Z M168 245H176V246H168Z M187 245H196V246H187Z M206 245H211V246H206Z M228 245H245V246H228Z M344 245H362V246H344Z M404 245H405V246H404Z M411 245H422V246H411Z M92 246H104V247H92Z M140 246H144V247H140Z M156 246H159V247H156Z M168 246H175V247H168Z M187 246H196V247H187Z M206 246H211V247H206Z M228 246H245V247H228Z M344 246H362V247H344Z M404 246H405V247H404Z M411 246H422V247H411Z M93 247H104V248H93Z M140 247H144V248H140Z M156 247H159V248H156Z M168 247H175V248H168Z M187 247H195V248H187Z M206 247H211V248H206Z M228 247H244V248H228Z M343 247H361V248H343Z M402 247H403V248H402Z M404 247H405V248H404Z M411 247H422V248H411Z M93 248H104V249H93Z M141 248H144V249H141Z M156 248H160V249H156Z M169 248H174V249H169Z M187 248H195V249H187Z M206 248H211V249H206Z M229 248H243V249H229Z M343 248H361V249H343Z M402 248H403V249H402Z M410 248H422V249H410Z M93 249H104V250H93Z M141 249H145V250H141Z M157 249H160V250H157Z M169 249H173V250H169Z M187 249H195V250H187Z M206 249H211V250H206Z M230 249H243V250H230Z M342 249H361V250H342Z M402 249H403V250H402Z M410 249H422V250H410Z M93 250H105V251H93Z M141 250H145V251H141Z M157 250H160V251H157Z M187 250H195V251H187Z M206 250H211V251H206Z M232 250H242V251H232Z M341 250H360V251H341Z M410 250H422V251H410Z M93 251H105V252H93Z M141 251H145V252H141Z M157 251H161V252H157Z M188 251H194V252H188Z M206 251H210V252H206Z M217 251H219V252H217Z M234 251H238V252H234Z M341 251H360V252H341Z M410 251H422V252H410Z M93 252H105V253H93Z M142 252H146V253H142Z M158 252H161V253H158Z M188 252H194V253H188Z M205 252H210V253H205Z M217 252H220V253H217Z M340 252H360V253H340Z M410 252H421V253H410Z M93 253H105V254H93Z M142 253H146V254H142Z M158 253H162V254H158Z M189 253H193V254H189Z M205 253H210V254H205Z M217 253H221V254H217Z M339 253H360V254H339Z M410 253H421V254H410Z M93 254H105V255H93Z M142 254H146V255H142Z M159 254H163V255H159Z M204 254H210V255H204Z M218 254H223V255H218Z M339 254H359V255H339Z M410 254H421V255H410Z M93 255H105V256H93Z M143 255H147V256H143Z M159 255H164V256H159Z M204 255H209V256H204Z M218 255H224V256H218Z M338 255H359V256H338Z M409 255H421V256H409Z M93 256H105V257H93Z M143 256H147V257H143Z M160 256H164V257H160Z M203 256H209V257H203Z M217 256H220V257H217Z M221 256H224V257H221Z M337 256H359V257H337Z M409 256H421V257H409Z M94 257H106V258H94Z M144 257H148V258H144Z M161 257H165V258H161Z M202 257H208V258H202Z M216 257H219V258H216Z M336 257H358V258H336Z M409 257H421V258H409Z M94 258H106V259H94Z M144 258H148V259H144Z M162 258H166V259H162Z M202 258H208V259H202Z M215 258H219V259H215Z M335 258H358V259H335Z M409 258H421V259H409Z M94 259H106V260H94Z M144 259H149V260H144Z M163 259H168V260H163Z M201 259H207V260H201Z M214 259H218V260H214Z M334 259H352V260H334Z M353 259H358V260H353Z M409 259H420V260H409Z M94 260H106V261H94Z M145 260H149V261H145Z M164 260H172V261H164Z M199 260H207V261H199Z M213 260H218V261H213Z M334 260H357V261H334Z M409 260H420V261H409Z M94 261H106V262H94Z M145 261H150V262H145Z M165 261H174V262H165Z M197 261H205V262H197Z M212 261H217V262H212Z M333 261H357V262H333Z M400 261H401V262H400Z M408 261H420V262H408Z M94 262H106V263H94Z M114 262H115V263H114Z M146 262H151V263H146Z M166 262H175V263H166Z M195 262H205V263H195Z M210 262H217V263H210Z M332 262H356V263H332Z M408 262H420V263H408Z M95 263H107V264H95Z M114 263H115V264H114Z M146 263H151V264H146Z M168 263H177V264H168Z M192 263H203V264H192Z M204 263H205V264H204Z M209 263H217V264H209Z M331 263H356V264H331Z M408 263H420V264H408Z M95 264H107V265H95Z M147 264H152V265H147Z M168 264H205V265H168Z M206 264H216V265H206Z M330 264H355V265H330Z M408 264H420V265H408Z M95 265H107V266H95Z M148 265H152V266H148Z M169 265H216V266H169Z M329 265H355V266H329Z M408 265H419V266H408Z M95 266H107V267H95Z M115 266H116V267H115Z M148 266H153V267H148Z M170 266H171V267H170Z M173 266H199V267H173Z M200 266H216V267H200Z M327 266H354V267H327Z M407 266H419V267H407Z M95 267H107V268H95Z M149 267H154V268H149Z M176 267H215V268H176Z M326 267H354V268H326Z M407 267H419V268H407Z M96 268H108V269H96Z M150 268H155V269H150Z M177 268H215V269H177Z M325 268H353V269H325Z M407 268H419V269H407Z M96 269H108V270H96Z M150 269H155V270H150Z M176 269H183V270H176Z M185 269H214V270H185Z M324 269H353V270H324Z M407 269H419V270H407Z M96 270H108V271H96Z M151 270H156V271H151Z M176 270H184V271H176Z M185 270H214V271H185Z M323 270H352V271H323Z M406 270H418V271H406Z M96 271H108V272H96Z M152 271H157V272H152Z M178 271H213V272H178Z M321 271H352V272H321Z M406 271H418V272H406Z M96 272H109V273H96Z M152 272H158V273H152Z M186 272H213V273H186Z M320 272H351V273H320Z M399 272H400V273H399Z M406 272H418V273H406Z M97 273H109V274H97Z M153 273H159V274H153Z M186 273H212V274H186Z M319 273H350V274H319Z M397 273H400V274H397Z M406 273H418V274H406Z M97 274H109V275H97Z M115 274H116V275H115Z M154 274H160V275H154Z M192 274H211V275H192Z M317 274H350V275H317Z M397 274H399V275H397Z M405 274H417V275H405Z M97 275H109V276H97Z M117 275H118V276H117Z M155 275H161V276H155Z M193 275H210V276H193Z M315 275H349V276H315Z M398 275H399V276H398Z M405 275H417V276H405Z M97 276H110V277H97Z M156 276H162V277H156Z M194 276H209V277H194Z M314 276H349V277H314Z M397 276H399V277H397Z M405 276H417V277H405Z M98 277H110V278H98Z M116 277H117V278H116Z M157 277H163V278H157Z M196 277H208V278H196Z M312 277H349V278H312Z M396 277H398V278H396Z M405 277H417V278H405Z M98 278H110V279H98Z M158 278H164V279H158Z M197 278H206V279H197Z M310 278H349V279H310Z M404 278H416V279H404Z M98 279H111V280H98Z M159 279H165V280H159Z M309 279H348V280H309Z M397 279H398V280H397Z M404 279H416V280H404Z M98 280H111V281H98Z M160 280H166V281H160Z M307 280H341V281H307Z M344 280H348V281H344Z M395 280H396V281H395Z M404 280H416V281H404Z M99 281H111V282H99Z M161 281H168V282H161Z M305 281H340V282H305Z M344 281H348V282H344Z M403 281H416V282H403Z M99 282H112V283H99Z M162 282H169V283H162Z M302 282H340V283H302Z M344 282H348V283H344Z M403 282H415V283H403Z M99 283H112V284H99Z M163 283H170V284H163Z M300 283H339V284H300Z M341 283H342V284H341Z M344 283H348V284H344Z M403 283H415V284H403Z M100 284H112V285H100Z M164 284H172V285H164Z M297 284H339V285H297Z M342 284H348V285H342Z M402 284H415V285H402Z M100 285H113V286H100Z M166 285H173V286H166Z M295 285H338V286H295Z M342 285H348V286H342Z M402 285H414V286H402Z M100 286H113V287H100Z M167 286H176V287H167Z M291 286H338V287H291Z M343 286H348V287H343Z M402 286H414V287H402Z M100 287H113V288H100Z M168 287H176V288H168Z M177 287H178V288H177Z M288 287H338V288H288Z M342 287H343V288H342Z M344 287H348V288H344Z M401 287H414V288H401Z M101 288H114V289H101Z M170 288H178V289H170Z M179 288H180V289H179Z M285 288H338V289H285Z M342 288H343V289H342Z M344 288H348V289H344Z M392 288H393V289H392Z M401 288H413V289H401Z M101 289H114V290H101Z M120 289H121V290H120Z M122 289H123V290H122Z M171 289H182V290H171Z M280 289H338V290H280Z M342 289H343V290H342Z M344 289H347V290H344Z M401 289H413V290H401Z M102 290H114V291H102Z M173 290H181V291H173Z M184 290H185V291H184Z M273 290H338V291H273Z M342 290H347V291H342Z M400 290H413V291H400Z M102 291H115V292H102Z M174 291H183V292H174Z M185 291H188V292H185Z M271 291H338V292H271Z M342 291H347V292H342Z M400 291H412V292H400Z M102 292H115V293H102Z M176 292H190V293H176Z M272 292H338V293H272Z M342 292H347V293H342Z M399 292H412V293H399Z M103 293H115V294H103Z M178 293H190V294H178Z M192 293H194V294H192Z M272 293H338V294H272Z M342 293H347V294H342Z M390 293H393V294H390Z M399 293H412V294H399Z M103 294H116V295H103Z M124 294H125V295H124Z M179 294H190V295H179Z M191 294H198V295H191Z M271 294H309V295H271Z M310 294H338V295H310Z M342 294H347V295H342Z M399 294H411V295H399Z M103 295H116V296H103Z M180 295H192V296H180Z M193 295H203V296H193Z M270 295H307V296H270Z M308 295H338V296H308Z M341 295H347V296H341Z M390 295H392V296H390Z M398 295H411V296H398Z M104 296H117V297H104Z M123 296H124V297H123Z M143 296H155V297H143Z M180 296H209V297H180Z M270 296H338V297H270Z M341 296H347V297H341Z M398 296H411V297H398Z M104 297H117V298H104Z M136 297H161V298H136Z M180 297H197V298H180Z M198 297H234V298H198Z M270 297H338V298H270Z M341 297H346V298H341Z M397 297H410V298H397Z M105 298H118V299H105Z M132 298H164V299H132Z M180 298H236V299H180Z M270 298H274V299H270Z M275 298H338V299H275Z M342 298H346V299H342Z M397 298H410V299H397Z M105 299H117V300H105Z M129 299H145V300H129Z M154 299H167V300H154Z M181 299H236V300H181Z M269 299H274V300H269Z M275 299H338V300H275Z M341 299H346V300H341Z M396 299H409V300H396Z M105 300H115V301H105Z M126 300H138V301H126Z M159 300H169V301H159Z M181 300H206V301H181Z M207 300H236V301H207Z M269 300H274V301H269Z M275 300H307V301H275Z M309 300H335V301H309Z M339 300H346V301H339Z M396 300H409V301H396Z M106 301H113V302H106Z M123 301H133V302H123Z M163 301H170V302H163Z M181 301H236V302H181Z M269 301H274V302H269Z M275 301H304V302H275Z M309 301H335V302H309Z M337 301H346V302H337Z M395 301H408V302H395Z M106 302H111V303H106Z M120 302H130V303H120Z M165 302H172V303H165Z M181 302H185V303H181Z M187 302H232V303H187Z M233 302H236V303H233Z M269 302H285V303H269Z M287 302H302V303H287Z M309 302H346V303H309Z M395 302H408V303H395Z M107 303H109V304H107Z M118 303H127V304H118Z M167 303H173V304H167Z M182 303H185V304H182Z M190 303H232V304H190Z M233 303H236V304H233Z M268 303H299V304H268Z M310 303H318V304H310Z M321 303H345V304H321Z M385 303H386V304H385Z M394 303H408V304H394Z M116 304H124V305H116Z M144 304H154V305H144Z M169 304H174V305H169Z M182 304H185V305H182Z M192 304H223V305H192Z M225 304H236V305H225Z M268 304H296V305H268Z M310 304H345V305H310Z M394 304H407V305H394Z M114 305H121V306H114Z M138 305H143V306H138Z M144 305H159V306H144Z M171 305H175V306H171Z M182 305H186V306H182Z M193 305H236V306H193Z M268 305H294V306H268Z M310 305H345V306H310Z M393 305H407V306H393Z M112 306H119V307H112Z M134 306H137V307H134Z M143 306H163V307H143Z M172 306H177V307H172Z M182 306H186V307H182Z M195 306H236V307H195Z M267 306H293V307H267Z M311 306H345V307H311Z M393 306H406V307H393Z M110 307H117V308H110Z M130 307H165V308H130Z M173 307H178V308H173Z M183 307H186V308H183Z M197 307H212V308H197Z M213 307H236V308H213Z M267 307H293V308H267Z M311 307H344V308H311Z M383 307H384V308H383Z M385 307H386V308H385Z M392 307H406V308H392Z M109 308H115V309H109Z M128 308H167V309H128Z M174 308H178V309H174Z M183 308H187V309H183Z M199 308H218V309H199Z M219 308H236V309H219Z M266 308H293V309H266Z M303 308H308V309H303Z M311 308H345V309H311Z M384 308H385V309H384Z M392 308H405V309H392Z M107 309H113V310H107Z M125 309H168V310H125Z M175 309H179V310H175Z M183 309H190V310H183Z M200 309H217V310H200Z M224 309H236V310H224Z M266 309H293V310H266Z M297 309H348V310H297Z M391 309H405V310H391Z M105 310H112V311H105Z M123 310H169V311H123Z M176 310H180V311H176Z M183 310H198V311H183Z M201 310H217V311H201Z M232 310H236V311H232Z M266 310H268V311H266Z M269 310H292V311H269Z M295 310H350V311H295Z M381 310H384V311H381Z M391 310H404V311H391Z M104 311H110V312H104Z M120 311H171V312H120Z M177 311H180V312H177Z M184 311H217V312H184Z M233 311H236V312H233Z M265 311H292V312H265Z M293 311H301V312H293Z M310 311H332V312H310Z M346 311H352V312H346Z M381 311H383V312H381Z M390 311H404V312H390Z M102 312H108V313H102Z M118 312H144V313H118Z M154 312H172V313H154Z M178 312H181V313H178Z M184 312H217V313H184Z M233 312H236V313H233Z M265 312H298V313H265Z M313 312H329V313H313Z M348 312H353V313H348Z M380 312H383V313H380Z M390 312H403V313H390Z M101 313H107V314H101Z M116 313H138V314H116Z M158 313H172V314H158Z M178 313H182V314H178Z M184 313H216V314H184Z M233 313H238V314H233Z M264 313H295V314H264Z M315 313H327V314H315Z M350 313H355V314H350Z M381 313H382V314H381Z M389 313H403V314H389Z M100 314H105V315H100Z M115 314H135V315H115Z M161 314H173V315H161Z M179 314H182V315H179Z M185 314H216V315H185Z M233 314H241V315H233Z M260 314H293V315H260Z M317 314H325V315H317Z M351 314H356V315H351Z M388 314H402V315H388Z M99 315H104V316H99Z M113 315H132V316H113Z M163 315H174V316H163Z M179 315H182V316H179Z M185 315H216V316H185Z M233 315H249V316H233Z M250 315H291V316H250Z M319 315H324V316H319Z M334 315H342V316H334Z M353 315H357V316H353Z M388 315H402V316H388Z M97 316H103V317H97Z M111 316H129V317H111Z M164 316H175V317H164Z M180 316H183V317H180Z M185 316H216V317H185Z M233 316H290V317H233Z M300 316H311V317H300Z M320 316H323V317H320Z M331 316H345V317H331Z M354 316H357V317H354Z M387 316H401V317H387Z M96 317H101V318H96Z M110 317H127V318H110Z M165 317H175V318H165Z M180 317H183V318H180Z M186 317H215V318H186Z M233 317H290V318H233Z M297 317H314V318H297Z M321 317H322V318H321Z M329 317H347V318H329Z M355 317H358V318H355Z M377 317H380V318H377Z M387 317H401V318H387Z M95 318H100V319H95Z M108 318H125V319H108Z M166 318H176V319H166Z M181 318H183V319H181Z M186 318H215V319H186Z M234 318H289V319H234Z M296 318H315V319H296Z M327 318H349V319H327Z M355 318H359V319H355Z M373 318H380V319H373Z M386 318H400V319H386Z M94 319H99V320H94Z M107 319H123V320H107Z M167 319H176V320H167Z M181 319H184V320H181Z M186 319H215V320H186Z M234 319H284V320H234Z M285 319H288V320H285Z M294 319H317V320H294Z M326 319H350V320H326Z M356 319H359V320H356Z M368 319H384V320H368Z M385 319H400V320H385Z M93 320H98V321H93Z M106 320H122V321H106Z M167 320H176V321H167Z M181 320H186V321H181Z M187 320H214V321H187Z M217 320H224V321H217Z M228 320H231V321H228Z M234 320H269V321H234Z M284 320H287V321H284Z M293 320H318V321H293Z M325 320H351V321H325Z M357 320H360V321H357Z M365 320H399V321H365Z M92 321H97V322H92Z M104 321H120V322H104Z M168 321H177V322H168Z M181 321H213V322H181Z M214 321H225V322H214Z M228 321H268V322H228Z M284 321H287V322H284Z M292 321H319V322H292Z M324 321H352V322H324Z M357 321H360V322H357Z M363 321H373V322H363Z M378 321H398V322H378Z M401 321H414V322H401Z M91 322H96V323H91Z M103 322H118V323H103Z M168 322H177V323H168Z M184 322H192V323H184Z M198 322H223V323H198Z M227 322H268V323H227Z M283 322H286V323H283Z M291 322H319V323H291Z M323 322H335V323H323Z M341 322H352V323H341Z M358 322H361V323H358Z M362 322H369V323H362Z M383 322H418V323H383Z M90 323H95V324H90Z M102 323H117V324H102Z M168 323H177V324H168Z M187 323H188V324H187Z M202 323H208V324H202Z M209 323H216V324H209Z M232 323H273V324H232Z M280 323H286V324H280Z M291 323H320V324H291Z M323 323H333V324H323Z M343 323H353V324H343Z M358 323H366V324H358Z M385 323H421V324H385Z M89 324H94V325H89Z M101 324H116V325H101Z M143 324H150V325H143Z M169 324H177V325H169Z M206 324H213V325H206Z M235 324H276V325H235Z M278 324H286V325H278Z M290 324H301V325H290Z M310 324H320V325H310Z M322 324H332V325H322Z M345 324H354V325H345Z M358 324H364V325H358Z M387 324H403V325H387Z M411 324H423V325H411Z M88 325H93V326H88Z M100 325H114V326H100Z M140 325H152V326H140Z M169 325H177V326H169Z M207 325H210V326H207Z M235 325H260V326H235Z M270 325H283V326H270Z M290 325H299V326H290Z M312 325H321V326H312Z M322 325H331V326H322Z M345 325H354V326H345Z M359 325H363V326H359Z M389 325H398V326H389Z M417 325H424V326H417Z M88 326H92V327H88Z M99 326H113V327H99Z M138 326H153V327H138Z M169 326H178V327H169Z M208 326H209V327H208Z M236 326H254V327H236Z M273 326H280V327H273Z M290 326H298V327H290Z M312 326H330V327H312Z M346 326H354V327H346Z M359 326H362V327H359Z M372 326H379V327H372Z M390 326H395V327H390Z M419 326H426V327H419Z M87 327H91V328H87Z M98 327H112V328H98Z M136 327H153V328H136Z M169 327H184V328H169Z M191 327H199V328H191Z M222 327H228V328H222Z M237 327H252V328H237Z M276 327H279V328H276Z M289 327H298V328H289Z M313 327H330V328H313Z M346 327H355V328H346Z M360 327H361V328H360Z M369 327H383V328H369Z M391 327H393V328H391Z M421 327H427V328H421Z M86 328H90V329H86Z M97 328H111V329H97Z M134 328H153V329H134Z M169 328H185V329H169Z M188 328H202V329H188Z M216 328H233V329H216Z M240 328H244V329H240Z M245 328H249V329H245Z M289 328H298V329H289Z M313 328H329V329H313Z M346 328H355V329H346Z M367 328H385V329H367Z M423 328H428V329H423Z M85 329H89V330H85Z M96 329H110V330H96Z M133 329H153V330H133Z M168 329H204V330H168Z M213 329H235V330H213Z M243 329H244V330H243Z M288 329H298V330H288Z M313 329H329V330H313Z M346 329H355V330H346Z M365 329H386V330H365Z M402 329H412V330H402Z M425 329H430V330H425Z M85 330H89V331H85Z M95 330H109V331H95Z M132 330H153V331H132Z M168 330H205V331H168Z M211 330H237V331H211Z M257 330H270V331H257Z M283 330H297V331H283Z M312 330H329V331H312Z M346 330H355V331H346Z M364 330H387V331H364Z M398 330H416V331H398Z M426 330H430V331H426Z M84 331H88V332H84Z M94 331H108V332H94Z M131 331H153V332H131Z M168 331H206V332H168Z M209 331H238V332H209Z M253 331H274V332H253Z M281 331H297V332H281Z M312 331H329V332H312Z M345 331H355V332H345Z M363 331H388V332H363Z M396 331H418V332H396Z M427 331H431V332H427Z M83 332H87V333H83Z M94 332H107V333H94Z M129 332H152V333H129Z M168 332H207V333H168Z M208 332H240V333H208Z M251 332H276V333H251Z M280 332H296V333H280Z M311 332H330V333H311Z M345 332H359V333H345Z M362 332H389V333H362Z M394 332H420V333H394Z M428 332H432V333H428Z M83 333H87V334H83Z M93 333H106V334H93Z M128 333H151V334H128Z M167 333H241V334H167Z M249 333H277V334H249Z M279 333H296V334H279Z M311 333H330V334H311Z M344 333H390V334H344Z M392 333H422V334H392Z M429 333H433V334H429Z M82 334H86V335H82Z M92 334H105V335H92Z M127 334H150V335H127Z M167 334H241V335H167Z M247 334H295V335H247Z M310 334H331V335H310Z M343 334H373V335H343Z M379 334H423V335H379Z M430 334H434V335H430Z M81 335H85V336H81Z M91 335H104V336H91Z M126 335H149V336H126Z M166 335H174V336H166Z M180 335H193V336H180Z M197 335H223V336H197Z M226 335H242V336H226Z M245 335H295V336H245Z M310 335H332V336H310Z M342 335H371V336H342Z M381 335H424V336H381Z M430 335H434V336H430Z M81 336H85V337H81Z M91 336H104V337H91Z M126 336H148V337H126Z M166 336H171V337H166Z M182 336H190V337H182Z M199 336H218V337H199Z M230 336H243V337H230Z M244 336H295V337H244Z M309 336H334V337H309Z M339 336H370V337H339Z M382 336H425V337H382Z M431 336H435V337H431Z M80 337H84V338H80Z M90 337H103V338H90Z M125 337H144V338H125Z M165 337H170V338H165Z M182 337H189V338H182Z M200 337H215V338H200Z M232 337H287V338H232Z M309 337H369V338H309Z M383 337H405V338H383Z M409 337H426V338H409Z M432 337H435V338H432Z M80 338H83V339H80Z M89 338H102V339H89Z M124 338H143V339H124Z M165 338H168V339H165Z M183 338H187V339H183Z M201 338H213V339H201Z M234 338H259V339H234Z M268 338H285V339H268Z M318 338H369V339H318Z M383 338H400V339H383Z M414 338H427V339H414Z M432 338H436V339H432Z M79 339H83V340H79Z M89 339H102V340H89Z M123 339H143V340H123Z M164 339H168V340H164Z M183 339H186V340H183Z M201 339H212V340H201Z M235 339H255V340H235Z M271 339H285V340H271Z M318 339H369V340H318Z M384 339H398V340H384Z M416 339H427V340H416Z M433 339H436V340H433Z M79 340H82V341H79Z M88 340H101V341H88Z M122 340H143V341H122Z M163 340H167V341H163Z M183 340H185V341H183Z M201 340H210V341H201Z M236 340H253V341H236Z M273 340H284V341H273Z M318 340H325V341H318Z M333 340H350V341H333Z M356 340H369V341H356Z M384 340H396V341H384Z M417 340H428V341H417Z M433 340H437V341H433Z M78 341H82V342H78Z M88 341H100V342H88Z M122 341H143V342H122Z M162 341H168V342H162Z M183 341H185V342H183Z M201 341H209V342H201Z M236 341H251V342H236Z M274 341H284V342H274Z M318 341H322V342H318Z M335 341H347V342H335Z M359 341H369V342H359Z M384 341H394V342H384Z M418 341H428V342H418Z M434 341H437V342H434Z M78 342H81V343H78Z M87 342H100V343H87Z M121 342H143V343H121Z M161 342H168V343H161Z M183 342H184V343H183Z M202 342H208V343H202Z M236 342H249V343H236Z M275 342H283V343H275Z M318 342H321V343H318Z M336 342H344V343H336Z M360 342H369V343H360Z M384 342H393V343H384Z M419 342H429V343H419Z M434 342H437V343H434Z M77 343H81V344H77Z M87 343H99V344H87Z M120 343H143V344H120Z M160 343H168V344H160Z M182 343H183V344H182Z M201 343H207V344H201Z M237 343H248V344H237Z M275 343H283V344H275Z M318 343H320V344H318Z M337 343H343V344H337Z M360 343H369V344H360Z M384 343H391V344H384Z M419 343H429V344H419Z M434 343H438V344H434Z M77 344H80V345H77Z M86 344H99V345H86Z M120 344H144V345H120Z M158 344H168V345H158Z M201 344H206V345H201Z M237 344H247V345H237Z M278 344H283V345H278Z M317 344H320V345H317Z M337 344H343V345H337Z M360 344H369V345H360Z M383 344H390V345H383Z M419 344H429V345H419Z M435 344H438V345H435Z M77 345H80V346H77Z M86 345H98V346H86Z M119 345H145V346H119Z M157 345H168V346H157Z M201 345H205V346H201Z M221 345H224V346H221Z M237 345H245V346H237Z M279 345H283V346H279Z M317 345H320V346H317Z M337 345H343V346H337Z M360 345H369V346H360Z M383 345H389V346H383Z M420 345H430V346H420Z M435 345H438V346H435Z M76 346H80V347H76Z M85 346H98V347H85Z M119 346H147V347H119Z M154 346H168V347H154Z M201 346H204V347H201Z M219 346H225V347H219Z M237 346H244V347H237Z M280 346H283V347H280Z M316 346H320V347H316Z M336 346H343V347H336Z M360 346H369V347H360Z M383 346H388V347H383Z M420 346H430V347H420Z M435 346H438V347H435Z M76 347H79V348H76Z M85 347H97V348H85Z M118 347H168V348H118Z M200 347H203V348H200Z M218 347H225V348H218Z M237 347H243V348H237Z M280 347H284V348H280Z M315 347H320V348H315Z M336 347H343V348H336Z M359 347H369V348H359Z M383 347H387V348H383Z M403 347H408V348H403Z M420 347H430V348H420Z M435 347H438V348H435Z M75 348H79V349H75Z M85 348H97V349H85Z M118 348H168V349H118Z M200 348H202V349H200Z M217 348H225V349H217Z M237 348H242V349H237Z M260 348H265V349H260Z M280 348H290V349H280Z M304 348H320V349H304Z M335 348H343V349H335Z M359 348H369V349H359Z M382 348H386V349H382Z M402 348H408V349H402Z M420 348H430V349H420Z M435 348H438V349H435Z M75 349H79V350H75Z M84 349H96V350H84Z M117 349H168V350H117Z M186 349H188V350H186Z M200 349H202V350H200Z M216 349H225V350H216Z M236 349H242V350H236Z M258 349H265V350H258Z M280 349H289V350H280Z M304 349H319V350H304Z M335 349H343V350H335Z M359 349H369V350H359Z M382 349H386V350H382Z M400 349H408V350H400Z M420 349H430V350H420Z M435 349H438V350H435Z M75 350H78V351H75Z M84 350H96V351H84Z M117 350H167V351H117Z M185 350H187V351H185Z M199 350H201V351H199Z M215 350H224V351H215Z M236 350H241V351H236Z M257 350H265V351H257Z M279 350H289V351H279Z M303 350H319V351H303Z M334 350H343V351H334Z M358 350H369V351H358Z M382 350H385V351H382Z M400 350H408V351H400Z M420 350H430V351H420Z M435 350H438V351H435Z M74 351H78V352H74Z M83 351H96V352H83Z M117 351H167V352H117Z M184 351H187V352H184Z M199 351H200V352H199Z M214 351H224V352H214Z M236 351H240V352H236Z M256 351H265V352H256Z M279 351H288V352H279Z M303 351H319V352H303Z M334 351H342V352H334Z M358 351H368V352H358Z M381 351H384V352H381Z M399 351H408V352H399Z M419 351H430V352H419Z M435 351H438V352H435Z M74 352H78V353H74Z M83 352H95V353H83Z M116 352H167V353H116Z M183 352H187V353H183Z M198 352H200V353H198Z M214 352H223V353H214Z M235 352H239V353H235Z M255 352H264V353H255Z M278 352H288V353H278Z M302 352H318V353H302Z M333 352H342V353H333Z M357 352H368V353H357Z M381 352H384V353H381Z M398 352H407V353H398Z M419 352H430V353H419Z M435 352H438V353H435Z M74 353H77V354H74Z M83 353H95V354H83Z M116 353H166V354H116Z M182 353H186V354H182Z M197 353H199V354H197Z M213 353H222V354H213Z M235 353H239V354H235Z M254 353H264V354H254Z M278 353H287V354H278Z M302 353H318V354H302Z M333 353H342V354H333Z M357 353H368V354H357Z M381 353H383V354H381Z M397 353H407V354H397Z M419 353H430V354H419Z M435 353H438V354H435Z M74 354H77V355H74Z M83 354H95V355H83Z M116 354H166V355H116Z M182 354H186V355H182Z M197 354H199V355H197Z M213 354H222V355H213Z M234 354H238V355H234Z M253 354H264V355H253Z M277 354H287V355H277Z M302 354H317V355H302Z M332 354H342V355H332Z M356 354H368V355H356Z M397 354H406V355H397Z M418 354H430V355H418Z M435 354H438V355H435Z M73 355H77V356H73Z M82 355H95V356H82Z M116 355H166V356H116Z M181 355H186V356H181Z M196 355H198V356H196Z M212 355H220V356H212Z M233 355H238V356H233Z M252 355H263V356H252Z M277 355H287V356H277Z M301 355H317V356H301Z M332 355H341V356H332Z M356 355H367V356H356Z M396 355H405V356H396Z M418 355H430V356H418Z M435 355H438V356H435Z M73 356H77V357H73Z M82 356H94V357H82Z M116 356H165V357H116Z M180 356H186V357H180Z M195 356H198V357H195Z M212 356H219V357H212Z M233 356H237V357H233Z M252 356H263V357H252Z M276 356H286V357H276Z M301 356H317V357H301Z M331 356H341V357H331Z M356 356H367V357H356Z M396 356H404V357H396Z M417 356H430V357H417Z M435 356H438V357H435Z M73 357H76V358H73Z M82 357H94V358H82Z M115 357H165V358H115Z M180 357H186V358H180Z M194 357H197V358H194Z M212 357H216V358H212Z M232 357H236V358H232Z M251 357H262V358H251Z M276 357H286V358H276Z M300 357H316V358H300Z M331 357H341V358H331Z M355 357H367V358H355Z M395 357H403V358H395Z M416 357H429V358H416Z M434 357H438V358H434Z M73 358H76V359H73Z M82 358H94V359H82Z M115 358H164V359H115Z M179 358H188V359H179Z M191 358H197V359H191Z M231 358H236V359H231Z M251 358H262V359H251Z M276 358H286V359H276Z M300 358H316V359H300Z M331 358H340V359H331Z M355 358H366V359H355Z M395 358H401V359H395Z M415 358H429V359H415Z M434 358H437V359H434Z M73 359H76V360H73Z M81 359H94V360H81Z M115 359H164V360H115Z M179 359H197V360H179Z M230 359H236V360H230Z M250 359H262V360H250Z M275 359H285V360H275Z M300 359H315V360H300Z M330 359H340V360H330Z M355 359H366V360H355Z M394 359H398V360H394Z M415 359H429V360H415Z M434 359H437V360H434Z M73 360H76V361H73Z M81 360H94V361H81Z M115 360H163V361H115Z M178 360H196V361H178Z M228 360H235V361H228Z M250 360H261V361H250Z M275 360H285V361H275Z M299 360H315V361H299Z M330 360H340V361H330Z M354 360H365V361H354Z M377 360H380V361H377Z M413 360H428V361H413Z M433 360H437V361H433Z M73 361H76V362H73Z M81 361H94V362H81Z M115 361H163V362H115Z M178 361H196V362H178Z M227 361H235V362H227Z M249 361H261V362H249Z M274 361H285V362H274Z M299 361H315V362H299Z M329 361H340V362H329Z M354 361H365V362H354Z M377 361H379V362H377Z M412 361H428V362H412Z M434 361H437V362H434Z M72 362H76V363H72Z M81 362H94V363H81Z M115 362H162V363H115Z M177 362H196V363H177Z M225 362H234V363H225Z M249 362H260V363H249Z M274 362H284V363H274Z M299 362H314V363H299Z M329 362H340V363H329Z M354 362H364V363H354Z M376 362H379V363H376Z M411 362H429V363H411Z M434 362H438V363H434Z M72 363H76V364H72Z M81 363H93V364H81Z M115 363H161V364H115Z M177 363H196V364H177Z M223 363H234V364H223Z M248 363H260V364H248Z M274 363H284V364H274Z M298 363H314V364H298Z M328 363H339V364H328Z M353 363H364V364H353Z M376 363H379V364H376Z M409 363H429V364H409Z M435 363H438V364H435Z M72 364H76V365H72Z M81 364H93V365H81Z M115 364H160V365H115Z M177 364H195V365H177Z M220 364H234V365H220Z M248 364H259V365H248Z M273 364H284V365H273Z M298 364H314V365H298Z M328 364H339V365H328Z M353 364H363V365H353Z M375 364H379V365H375Z M407 364H430V365H407Z M435 364H438V365H435Z M72 365H76V366H72Z M81 365H93V366H81Z M116 365H158V366H116Z M176 365H195V366H176Z M216 365H233V366H216Z M248 365H258V366H248Z M273 365H283V366H273Z M298 365H313V366H298Z M328 365H339V366H328Z M353 365H362V366H353Z M374 365H378V366H374Z M405 365H430V366H405Z M435 365H439V366H435Z M72 366H76V367H72Z M81 366H94V367H81Z M116 366H157V367H116Z M176 366H195V367H176Z M210 366H232V367H210Z M248 366H258V367H248Z M273 366H282V367H273Z M298 366H312V367H298Z M328 366H338V367H328Z M353 366H362V367H353Z M374 366H378V367H374Z M402 366H431V367H402Z M436 366H439V367H436Z M72 367H76V368H72Z M81 367H94V368H81Z M116 367H156V368H116Z M176 367H195V368H176Z M210 367H231V368H210Z M248 367H257V368H248Z M272 367H281V368H272Z M297 367H311V368H297Z M327 367H337V368H327Z M353 367H361V368H353Z M373 367H378V368H373Z M393 367H416V368H393Z M419 367H431V368H419Z M436 367H439V368H436Z M72 368H76V369H72Z M81 368H94V369H81Z M117 368H154V369H117Z M175 368H195V369H175Z M210 368H229V369H210Z M248 368H256V369H248Z M272 368H280V369H272Z M297 368H310V369H297Z M327 368H336V369H327Z M352 368H360V369H352Z M372 368H378V369H372Z M393 368H415V369H393Z M419 368H431V369H419Z M436 368H439V369H436Z M72 369H76V370H72Z M81 369H94V370H81Z M117 369H153V370H117Z M175 369H195V370H175Z M211 369H228V370H211Z M248 369H255V370H248Z M272 369H279V370H272Z M297 369H309V370H297Z M327 369H335V370H327Z M352 369H360V370H352Z M372 369H378V370H372Z M393 369H414V370H393Z M420 369H431V370H420Z M436 369H440V370H436Z M72 370H76V371H72Z M81 370H94V371H81Z M118 370H151V371H118Z M175 370H195V371H175Z M212 370H226V371H212Z M249 370H254V371H249Z M272 370H278V371H272Z M298 370H307V371H298Z M327 370H334V371H327Z M353 370H359V371H353Z M371 370H378V371H371Z M394 370H412V371H394Z M420 370H432V371H420Z M436 370H440V371H436Z M72 371H76V372H72Z M81 371H94V372H81Z M119 371H149V372H119Z M174 371H196V372H174Z M213 371H223V372H213Z M272 371H276V372H272Z M298 371H305V372H298Z M327 371H333V372H327Z M353 371H358V372H353Z M370 371H378V372H370Z M394 371H410V372H394Z M419 371H432V372H419Z M437 371H440V372H437Z M72 372H76V373H72Z M81 372H95V373H81Z M120 372H147V373H120Z M174 372H196V373H174Z M328 372H331V373H328Z M354 372H356V373H354Z M369 372H378V373H369Z M395 372H408V373H395Z M419 372H432V373H419Z M437 372H440V373H437Z M73 373H76V374H73Z M81 373H95V374H81Z M121 373H145V374H121Z M174 373H196V374H174Z M369 373H378V374H369Z M397 373H405V374H397Z M418 373H432V374H418Z M437 373H440V374H437Z M73 374H76V375H73Z M81 374H95V375H81Z M123 374H142V375H123Z M174 374H196V375H174Z M368 374H379V375H368Z M418 374H432V375H418Z M436 374H440V375H436Z M73 375H76V376H73Z M82 375H96V376H82Z M126 375H138V376H126Z M174 375H197V376H174Z M232 375H233V376H232Z M367 375H379V376H367Z M417 375H431V376H417Z M436 375H440V376H436Z M73 376H76V377H73Z M82 376H96V377H82Z M158 376H159V377H158Z M174 376H197V377H174Z M231 376H234V377H231Z M281 376H283V377H281Z M311 376H312V377H311Z M337 376H339V377H337Z M366 376H379V377H366Z M416 376H431V377H416Z M436 376H439V377H436Z M73 377H77V378H73Z M82 377H97V378H82Z M157 377H159V378H157Z M174 377H198V378H174Z M229 377H234V378H229Z M257 377H258V378H257Z M280 377H283V378H280Z M310 377H312V378H310Z M336 377H339V378H336Z M365 377H380V378H365Z M415 377H431V378H415Z M436 377H439V378H436Z M73 378H77V379H73Z M82 378H97V379H82Z M156 378H159V379H156Z M174 378H199V379H174Z M228 378H235V379H228Z M256 378H259V379H256Z M279 378H283V379H279Z M308 378H312V379H308Z M335 378H339V379H335Z M364 378H380V379H364Z M414 378H431V379H414Z M436 378H439V379H436Z M74 379H77V380H74Z M83 379H98V380H83Z M155 379H159V380H155Z M174 379H200V380H174Z M226 379H235V380H226Z M255 379H259V380H255Z M278 379H284V380H278Z M307 379H313V380H307Z M334 379H340V380H334Z M362 379H381V380H362Z M413 379H430V380H413Z M436 379H439V380H436Z M74 380H77V381H74Z M83 380H98V381H83Z M153 380H159V381H153Z M173 380H201V381H173Z M225 380H236V381H225Z M253 380H260V381H253Z M276 380H285V381H276Z M306 380H313V381H306Z M333 380H340V381H333Z M361 380H382V381H361Z M411 380H430V381H411Z M435 380H439V381H435Z M74 381H78V382H74Z M83 381H99V382H83Z M152 381H161V382H152Z M171 381H203V382H171Z M222 381H237V382H222Z M252 381H260V382H252Z M274 381H286V382H274Z M304 381H314V382H304Z M331 381H341V382H331Z M360 381H383V382H360Z M409 381H429V382H409Z M435 381H438V382H435Z M74 382H78V383H74Z M84 382H100V383H84Z M151 382H163V383H151Z M168 382H206V383H168Z M220 382H239V383H220Z M250 382H262V383H250Z M272 382H287V383H272Z M302 382H316V383H302Z M329 382H342V383H329Z M358 382H385V383H358Z M407 382H429V383H407Z M434 382H438V383H434Z M75 383H78V384H75Z M84 383H101V384H84Z M149 383H243V384H149Z M245 383H265V384H245Z M268 383H290V384H268Z M299 383H318V384H299Z M326 383H344V384H326Z M356 383H387V384H356Z M405 383H428V384H405Z M434 383H438V384H434Z M75 384H79V385H75Z M85 384H102V385H85Z M148 384H347V385H148Z M352 384H390V385H352Z M401 384H428V385H401Z M434 384H437V385H434Z M76 385H79V386H76Z M85 385H103V386H85Z M146 385H427V386H146Z M433 385H437V386H433Z M76 386H80V387H76Z M86 386H105V387H86Z M144 386H426V387H144Z M432 386H436V387H432Z M76 387H80V388H76Z M86 387H106V388H86Z M142 387H186V388H142Z M201 387H287V388H201Z M294 387H425V388H294Z M432 387H436V388H432Z M77 388H81V389H77Z M87 388H108V389H87Z M140 388H182V389H140Z M204 388H285V389H204Z M296 388H425V389H296Z M431 388H435V389H431Z M77 389H81V390H77Z M87 389H110V390H87Z M137 389H179V390H137Z M207 389H283V390H207Z M298 389H424V390H298Z M430 389H434V390H430Z M78 390H82V391H78Z M88 390H114V391H88Z M133 390H177V391H133Z M208 390H282V391H208Z M299 390H423V391H299Z M430 390H434V391H430Z M78 391H82V392H78Z M89 391H120V392H89Z M127 391H175V392H127Z M210 391H281V392H210Z M299 391H373V392H299Z M374 391H421V392H374Z M429 391H433V392H429Z M79 392H83V393H79Z M89 392H174V393H89Z M211 392H281V393H211Z M300 392H372V393H300Z M375 392H420V393H375Z M428 392H432V393H428Z M80 393H84V394H80Z M90 393H172V394H90Z M212 393H280V394H212Z M300 393H371V394H300Z M376 393H419V394H376Z M427 393H431V394H427Z M80 394H84V395H80Z M91 394H171V395H91Z M213 394H280V395H213Z M300 394H370V395H300Z M377 394H417V395H377Z M426 394H430V395H426Z M81 395H85V396H81Z M92 395H170V396H92Z M214 395H280V396H214Z M301 395H369V396H301Z M378 395H415V396H378Z M424 395H429V396H424Z M82 396H86V397H82Z M93 396H169V397H93Z M214 396H280V397H214Z M301 396H367V397H301Z M380 396H413V397H380Z M423 396H428V397H423Z M82 397H87V398H82Z M94 397H168V398H94Z M215 397H280V398H215Z M300 397H366V398H300Z M382 397H411V398H382Z M422 397H427V398H422Z M83 398H87V399H83Z M95 398H167V399H95Z M215 398H280V399H215Z M300 398H364V399H300Z M385 398H408V399H385Z M420 398H426V399H420Z M84 399H88V400H84Z M97 399H166V400H97Z M215 399H280V400H215Z M300 399H362V400H300Z M372 399H375V400H372Z M388 399H404V400H388Z M419 399H425V400H419Z M85 400H89V401H85Z M98 400H165V401H98Z M216 400H281V401H216Z M299 400H359V401H299Z M371 400H377V401H371Z M417 400H423V401H417Z M86 401H91V402H86Z M100 401H164V402H100Z M216 401H245V402H216Z M251 401H281V402H251Z M299 401H358V402H299Z M369 401H379V402H369Z M415 401H422V402H415Z M87 402H92V403H87Z M101 402H163V403H101Z M216 402H239V403H216Z M256 402H282V403H256Z M298 402H359V403H298Z M368 402H381V403H368Z M412 402H420V403H412Z M88 403H93V404H88Z M103 403H144V404H103Z M148 403H162V404H148Z M192 403H194V404H192Z M216 403H237V404H216Z M259 403H284V404H259Z M296 403H360V404H296Z M367 403H383V404H367Z M410 403H418V404H410Z M89 404H94V405H89Z M105 404H142V405H105Z M149 404H162V405H149Z M188 404H197V405H188Z M216 404H234V405H216Z M261 404H286V405H261Z M294 404H361V405H294Z M368 404H387V405H368Z M406 404H416V405H406Z M90 405H96V406H90Z M108 405H138V406H108Z M149 405H161V406H149Z M187 405H198V406H187Z M216 405H233V406H216Z M262 405H362V406H262Z M368 405H393V406H368Z M399 405H414V406H399Z M91 406H97V407H91Z M112 406H134V407H112Z M148 406H161V407H148Z M185 406H198V407H185Z M215 406H231V407H215Z M264 406H311V407H264Z M319 406H333V407H319Z M342 406H362V407H342Z M369 406H411V407H369Z M93 407H99V408H93Z M117 407H128V408H117Z M148 407H160V408H148Z M184 407H198V408H184Z M215 407H230V408H215Z M265 407H308V408H265Z M321 407H330V408H321Z M344 407H363V408H344Z M369 407H407V408H369Z M94 408H101V409H94Z M148 408H160V409H148Z M183 408H198V409H183Z M215 408H229V409H215Z M266 408H287V409H266Z M291 408H306V409H291Z M322 408H328V409H322Z M346 408H363V409H346Z M370 408H403V409H370Z M96 409H104V410H96Z M147 409H159V410H147Z M182 409H198V410H182Z M215 409H228V410H215Z M267 409H283V410H267Z M295 409H305V410H295Z M323 409H327V410H323Z M348 409H364V410H348Z M370 409H402V410H370Z M98 410H107V411H98Z M140 410H141V411H140Z M147 410H159V411H147Z M181 410H197V411H181Z M214 410H227V411H214Z M268 410H281V411H268Z M296 410H304V411H296Z M323 410H326V411H323Z M349 410H364V411H349Z M370 410H400V411H370Z M100 411H110V412H100Z M136 411H141V412H136Z M147 411H158V412H147Z M181 411H196V412H181Z M213 411H226V412H213Z M269 411H279V412H269Z M297 411H304V412H297Z M323 411H325V412H323Z M350 411H364V412H350Z M371 411H398V412H371Z M102 412H115V413H102Z M131 412H140V413H131Z M146 412H158V413H146Z M180 412H195V413H180Z M213 412H225V413H213Z M269 412H278V413H269Z M298 412H304V413H298Z M350 412H365V413H350Z M371 412H397V413H371Z M105 413H140V414H105Z M146 413H158V414H146Z M180 413H195V414H180Z M212 413H224V414H212Z M270 413H278V414H270Z M298 413H305V414H298Z M351 413H365V414H351Z M371 413H395V414H371Z M109 414H140V415H109Z M146 414H157V415H146Z M179 414H196V415H179Z M211 414H223V415H211Z M270 414H278V415H270Z M298 414H305V415H298Z M351 414H365V415H351Z M371 414H393V415H371Z M110 415H140V416H110Z M146 415H157V416H146Z M179 415H197V416H179Z M209 415H223V416H209Z M271 415H278V416H271Z M298 415H305V416H298Z M352 415H366V416H352Z M372 415H392V416H372Z M112 416H139V417H112Z M145 416H157V417H145Z M178 416H198V417H178Z M207 416H222V417H207Z M271 416H279V417H271Z M298 416H305V417H298Z M352 416H366V417H352Z M372 416H390V417H372Z M114 417H139V418H114Z M145 417H156V418H145Z M178 417H222V418H178Z M244 417H250V418H244Z M272 417H279V418H272Z M298 417H305V418H298Z M352 417H366V418H352Z M372 417H388V418H372Z M116 418H139V419H116Z M145 418H156V419H145Z M178 418H221V419H178Z M242 418H252V419H242Z M272 418H279V419H272Z M298 418H305V419H298Z M352 418H366V419H352Z M372 418H386V419H372Z M118 419H139V420H118Z M145 419H156V420H145Z M178 419H221V420H178Z M241 419H253V420H241Z M272 419H279V420H272Z M298 419H305V420H298Z M352 419H366V420H352Z M372 419H385V420H372Z M119 420H139V421H119Z M145 420H156V421H145Z M177 420H221V421H177Z M241 420H253V421H241Z M272 420H279V421H272Z M298 420H305V421H298Z M352 420H366V421H352Z M372 420H383V421H372Z M121 421H139V422H121Z M144 421H156V422H144Z M177 421H220V422H177Z M240 421H254V422H240Z M273 421H279V422H273Z M298 421H305V422H298Z M352 421H366V422H352Z M372 421H381V422H372Z M123 422H139V423H123Z M144 422H156V423H144Z M177 422H220V423H177Z M239 422H254V423H239Z M273 422H279V423H273Z M297 422H305V423H297Z M328 422H332V423H328Z M352 422H367V423H352Z M372 422H379V423H372Z M125 423H139V424H125Z M144 423H156V424H144Z M177 423H220V424H177Z M239 423H254V424H239Z M273 423H279V424H273Z M297 423H305V424H297Z M326 423H333V424H326Z M352 423H367V424H352Z M372 423H377V424H372Z M127 424H138V425H127Z M144 424H155V425H144Z M177 424H220V425H177Z M239 424H254V425H239Z M273 424H279V425H273Z M297 424H305V425H297Z M325 424H333V425H325Z M352 424H367V425H352Z M372 424H377V425H372Z M129 425H138V426H129Z M144 425H155V426H144Z M177 425H219V426H177Z M238 425H254V426H238Z M273 425H279V426H273Z M297 425H304V426H297Z M324 425H334V426H324Z M352 425H367V426H352Z M372 425H377V426H372Z M131 426H138V427H131Z M144 426H155V427H144Z M177 426H219V427H177Z M238 426H254V427H238Z M273 426H279V427H273Z M297 426H304V427H297Z M324 426H334V427H324Z M352 426H367V427H352Z M372 426H378V427H372Z M133 427H138V428H133Z M144 427H155V428H144Z M177 427H219V428H177Z M238 427H254V428H238Z M273 427H279V428H273Z M296 427H304V428H296Z M323 427H334V428H323Z M352 427H367V428H352Z M372 427H378V428H372Z M135 428H138V429H135Z M144 428H155V429H144Z M177 428H219V429H177Z M238 428H254V429H238Z M273 428H278V429H273Z M296 428H304V429H296Z M323 428H334V429H323Z M352 428H366V429H352Z M372 428H378V429H372Z M135 429H138V430H135Z M144 429H155V430H144Z M177 429H219V430H177Z M238 429H254V430H238Z M273 429H278V430H273Z M296 429H304V430H296Z M322 429H333V430H322Z M352 429H366V430H352Z M372 429H379V430H372Z M135 430H138V431H135Z M144 430H155V431H144Z M178 430H219V431H178Z M238 430H254V431H238Z M273 430H278V431H273Z M296 430H304V431H296Z M322 430H333V431H322Z M351 430H366V431H351Z M372 430H379V431H372Z M135 431H138V432H135Z M144 431H156V432H144Z M178 431H219V432H178Z M238 431H254V432H238Z M273 431H278V432H273Z M296 431H304V432H296Z M322 431H333V432H322Z M351 431H366V432H351Z M373 431H379V432H373Z M135 432H139V433H135Z M144 432H156V433H144Z M178 432H219V433H178Z M238 432H254V433H238Z M272 432H278V433H272Z M296 432H303V433H296Z M321 432H333V433H321Z M351 432H367V433H351Z M373 432H379V433H373Z M135 433H139V434H135Z M144 433H156V434H144Z M179 433H219V434H179Z M238 433H253V434H238Z M272 433H278V434H272Z M296 433H303V434H296Z M321 433H333V434H321Z M351 433H367V434H351Z M374 433H379V434H374Z M135 434H139V435H135Z M145 434H156V435H145Z M179 434H208V435H179Z M211 434H219V435H211Z M238 434H253V435H238Z M272 434H277V435H272Z M295 434H303V435H295Z M321 434H332V435H321Z M351 434H368V435H351Z M374 434H380V435H374Z M135 435H139V436H135Z M145 435H156V436H145Z M180 435H207V436H180Z M213 435H219V436H213Z M239 435H252V436H239Z M272 435H277V436H272Z M295 435H303V436H295Z M321 435H332V436H321Z M350 435H368V436H350Z M375 435H380V436H375Z M135 436H139V437H135Z M145 436H156V437H145Z M180 436H206V437H180Z M214 436H220V437H214Z M239 436H252V437H239Z M271 436H277V437H271Z M295 436H303V437H295Z M320 436H332V437H320Z M350 436H369V437H350Z M375 436H380V437H375Z M135 437H139V438H135Z M145 437H157V438H145Z M181 437H205V438H181Z M215 437H220V438H215Z M240 437H251V438H240Z M271 437H277V438H271Z M295 437H303V438H295Z M320 437H332V438H320Z M350 437H369V438H350Z M375 437H380V438H375Z M136 438H139V439H136Z M145 438H157V439H145Z M182 438H204V439H182Z M216 438H220V439H216Z M241 438H250V439H241Z M271 438H277V439H271Z M295 438H302V439H295Z M320 438H332V439H320Z M350 438H370V439H350Z M376 438H380V439H376Z M136 439H139V440H136Z M146 439H157V440H146Z M183 439H202V440H183Z M216 439H220V440H216Z M242 439H248V440H242Z M270 439H277V440H270Z M295 439H302V440H295Z M320 439H331V440H320Z M350 439H370V440H350Z M376 439H380V440H376Z M136 440H140V441H136Z M146 440H158V441H146Z M184 440H200V441H184Z M216 440H221V441H216Z M270 440H277V441H270Z M295 440H302V441H295Z M320 440H331V441H320Z M349 440H370V441H349Z M376 440H380V441H376Z M136 441H140V442H136Z M146 441H158V442H146Z M186 441H198V442H186Z M216 441H221V442H216Z M269 441H276V442H269Z M295 441H302V442H295Z M320 441H331V442H320Z M349 441H370V442H349Z M376 441H380V442H376Z M136 442H140V443H136Z M146 442H158V443H146Z M216 442H222V443H216Z M268 442H276V443H268Z M294 442H302V443H294Z M320 442H331V443H320Z M349 442H370V443H349Z M376 442H380V443H376Z M137 443H140V444H137Z M147 443H159V444H147Z M216 443H222V444H216Z M268 443H276V444H268Z M294 443H301V444H294Z M320 443H331V444H320Z M349 443H370V444H349Z M376 443H380V444H376Z M137 444H141V445H137Z M147 444H159V445H147Z M216 444H223V445H216Z M267 444H276V445H267Z M294 444H301V445H294Z M320 444H331V445H320Z M350 444H354V445H350Z M357 444H370V445H357Z M376 444H380V445H376Z M137 445H141V446H137Z M147 445H160V446H147Z M216 445H224V446H216Z M266 445H276V446H266Z M295 445H301V446H295Z M320 445H330V446H320Z M357 445H370V446H357Z M376 445H380V446H376Z M138 446H141V447H138Z M148 446H160V447H148Z M216 446H224V447H216Z M265 446H276V447H265Z M295 446H301V447H295Z M320 446H330V447H320Z M357 446H370V447H357Z M376 446H380V447H376Z M138 447H142V448H138Z M148 447H161V448H148Z M215 447H225V448H215Z M264 447H276V448H264Z M295 447H301V448H295Z M320 447H331V448H320Z M357 447H370V448H357Z M376 447H380V448H376Z M138 448H142V449H138Z M148 448H162V449H148Z M215 448H226V449H215Z M263 448H276V449H263Z M295 448H301V449H295Z M320 448H331V449H320Z M357 448H370V449H357Z M376 448H380V449H376Z M139 449H142V450H139Z M149 449H163V450H149Z M214 449H227V450H214Z M262 449H276V450H262Z M295 449H301V450H295Z M320 449H331V450H320Z M356 449H370V450H356Z M376 449H380V450H376Z M139 450H143V451H139Z M149 450H163V451H149Z M213 450H229V451H213Z M261 450H276V451H261Z M296 450H301V451H296Z M320 450H331V451H320Z M356 450H369V451H356Z M376 450H380V451H376Z M139 451H143V452H139Z M150 451H164V452H150Z M212 451H230V452H212Z M259 451H277V452H259Z M295 451H302V452H295Z M319 451H332V452H319Z M355 451H369V452H355Z M375 451H379V452H375Z M140 452H144V453H140Z M150 452H165V453H150Z M211 452H232V453H211Z M257 452H277V453H257Z M295 452H303V453H295Z M318 452H332V453H318Z M354 452H369V453H354Z M375 452H379V453H375Z M140 453H144V454H140Z M151 453H166V454H151Z M210 453H234V454H210Z M255 453H278V454H255Z M294 453H304V454H294Z M317 453H333V454H317Z M353 453H369V454H353Z M375 453H379V454H375Z M141 454H145V455H141Z M151 454H168V455H151Z M209 454H238V455H209Z M251 454H280V455H251Z M292 454H307V455H292Z M314 454H334V455H314Z M352 454H368V455H352Z M375 454H379V455H375Z M141 455H145V456H141Z M152 455H169V456H152Z M207 455H282V456H207Z M289 455H335V456H289Z M351 455H368V456H351Z M374 455H378V456H374Z M142 456H146V457H142Z M153 456H171V457H153Z M206 456H337V457H206Z M349 456H367V457H349Z M374 456H378V457H374Z M142 457H146V458H142Z M153 457H172V458H153Z M204 457H341V458H204Z M344 457H367V458H344Z M373 457H378V458H373Z M143 458H147V459H143Z M154 458H175V459H154Z M202 458H366V459H202Z M373 458H377V459H373Z M143 459H148V460H143Z M155 459H177V460H155Z M198 459H365V460H198Z M372 459H377V460H372Z M144 460H148V461H144Z M156 460H181V461H156Z M194 460H365V461H194Z M372 460H376V461H372Z M144 461H149V462H144Z M157 461H221V462H157Z M222 461H364V462H222Z M371 461H376V462H371Z M145 462H150V463H145Z M158 462H220V463H158Z M223 462H267V463H223Z M269 462H363V463H269Z M371 462H375V463H371Z M146 463H151V464H146Z M159 463H219V464H159Z M225 463H266V464H225Z M270 463H362V464H270Z M370 463H375V464H370Z M147 464H151V465H147Z M160 464H217V465H160Z M226 464H264V465H226Z M271 464H324V465H271Z M325 464H361V465H325Z M369 464H374V465H369Z M147 465H152V466H147Z M161 465H216V466H161Z M228 465H262V466H228Z M272 465H323V466H272Z M326 465H360V466H326Z M368 465H373V466H368Z M148 466H153V467H148Z M162 466H215V467H162Z M230 466H260V467H230Z M274 466H299V467H274Z M301 466H321V467H301Z M328 466H358V467H328Z M367 466H372V467H367Z M149 467H154V468H149Z M164 467H213V468H164Z M233 467H257V468H233Z M276 467H297V468H276Z M303 467H318V468H303Z M329 467H357V468H329Z M366 467H372V468H366Z M150 468H155V469H150Z M165 468H212V469H165Z M237 468H253V469H237Z M278 468H294V469H278Z M308 468H313V469H308Z M330 468H355V469H330Z M365 468H371V469H365Z M151 469H156V470H151Z M167 469H210V470H167Z M221 469H223V470H221Z M267 469H268V470H267Z M282 469H290V470H282Z M332 469H353V470H332Z M364 469H370V470H364Z M152 470H158V471H152Z M169 470H208V471H169Z M219 470H225V471H219Z M265 470H269V471H265Z M335 470H350V471H335Z M363 470H369V471H363Z M153 471H159V472H153Z M171 471H206V472H171Z M218 471H227V472H218Z M263 471H271V472H263Z M341 471H344V472H341Z M362 471H368V472H362Z M154 472H161V473H154Z M174 472H203V473H174Z M216 472H229V473H216Z M261 472H272V473H261Z M322 472H326V473H322Z M360 472H367V473H360Z M156 473H162V474H156Z M177 473H199V474H177Z M215 473H232V474H215Z M258 473H274V474H258Z M298 473H302V474H298Z M319 473H327V474H319Z M358 473H365V474H358Z M157 474H164V475H157Z M182 474H193V475H182Z M213 474H220V475H213Z M224 474H237V475H224Z M253 474H266V475H253Z M269 474H278V475H269Z M295 474H310V475H295Z M312 474H329V475H312Z M356 474H364V475H356Z M158 475H166V476H158Z M211 475H219V476H211Z M227 475H263V476H227Z M270 475H282V476H270Z M290 475H331V476H290Z M354 475H362V476H354Z M160 476H168V477H160Z M209 476H217V477H209Z M229 476H260V477H229Z M272 476H322V477H272Z M325 476H335V477H325Z M350 476H361V477H350Z M161 477H170V478H161Z M206 477H215V478H206Z M233 477H257V478H233Z M275 477H298V478H275Z M303 477H318V478H303Z M327 477H359V478H327Z M163 478H173V479H163Z M203 478H213V479H203Z M238 478H252V479H238Z M278 478H294V479H278Z M329 478H356V479H329Z M165 479H177V480H165Z M199 479H211V480H199Z M332 479H353V480H332Z M167 480H183V481H167Z M193 480H209V481H193Z M336 480H350V481H336Z M170 481H206V482H170Z M173 482H203V483H173Z M178 483H198V484H178Z" /></g></svg>
